<?xml version="1.0" encoding="UTF-8"?>
<svg width="375px" height="50px" viewBox="0 0 375 50" version="1.1" xmlns="http://www.w3.org/2000/svg" xmlns:xlink="http://www.w3.org/1999/xlink">
    <!-- Generator: Sketch 42 (36781) - http://www.bohemiancoding.com/sketch -->
    <title>cx-logo-big</title>
    <desc>Created with Sketch.</desc>
    <defs></defs>
    <g id="Logins" stroke="none" stroke-width="1" fill="none" fill-rule="evenodd">
        <g id="Risk-Analytics" transform="translate(-186.000000, -161.000000)" fill="#FFFFFF">
            <g id="Group" transform="translate(40.000000, 161.000000)">
                <g id="cx-logo-big" transform="translate(146.000000, 0.000000)">
                    <path d="M34.584,39.616 C32.544,40.432 29.076,41.112 25.948,41.112 C16.7,41.112 11.26,35.332 11.26,26.152 C11.26,15.952 17.652,10.988 25.88,10.988 C29.552,10.988 32.476,11.804 34.584,12.688 L36.692,4.46 C34.856,3.508 30.776,2.42 25.404,2.42 C11.532,2.42 0.38,11.124 0.38,26.764 C0.38,39.82 8.54,49.748 24.384,49.748 C29.96,49.748 34.244,48.66 36.148,47.708 L34.584,39.616 Z M68.172,29.348 L68.172,40.908 C68.172,44.104 68.308,47.164 68.648,49 L59.332,49 L58.72,45.668 L58.516,45.668 C56.34,48.32 52.94,49.748 48.996,49.748 C42.264,49.748 38.252,44.852 38.252,39.548 C38.252,30.912 46.004,26.764 57.768,26.832 L57.768,26.356 C57.768,24.588 56.816,22.072 51.716,22.072 C48.316,22.072 44.712,23.228 42.536,24.588 L40.632,17.924 C42.944,16.632 47.5,15 53.552,15 C64.636,15 68.172,21.528 68.172,29.348 Z M58.108,36.896 L58.108,33.292 C52.668,33.224 48.452,34.516 48.452,38.528 C48.452,41.18 50.22,42.472 52.532,42.472 C55.116,42.472 57.224,40.772 57.904,38.664 C58.04,38.12 58.108,37.508 58.108,36.896 Z M75.716,9.492 L75.716,15.748 L71.296,15.748 L71.296,23.364 L75.716,23.364 L75.716,36.964 C75.716,41.656 76.668,44.852 78.572,46.824 C80.204,48.524 82.992,49.748 86.324,49.748 C89.248,49.748 91.696,49.34 93.056,48.796 L92.988,40.976 C91.968,41.18 91.356,41.248 89.928,41.248 C86.8,41.248 85.848,39.412 85.848,35.4 L85.848,23.364 L93.26,23.364 L93.26,15.748 L85.848,15.748 L85.848,6.704 L75.716,9.492 Z M98.084,49 L98.084,3.78 C101.416,3.236 106.38,2.828 111.888,2.828 C118.688,2.828 123.448,3.848 126.712,6.432 C129.432,8.608 130.928,11.804 130.928,16.02 C130.928,21.868 126.78,25.88 122.836,27.308 L122.836,27.512 C126.032,28.804 127.8,31.864 128.956,36.08 C130.384,41.248 131.812,47.232 132.696,49 L122.088,49 C121.34,47.64 120.252,43.968 118.892,38.324 C117.668,32.612 115.696,31.048 111.48,30.98 L108.352,30.98 L108.352,49 L98.084,49 Z M108.352,10.852 L108.352,23.5 L112.432,23.5 C117.6,23.5 120.66,20.916 120.66,16.904 C120.66,12.688 117.804,10.58 113.044,10.512 C110.528,10.512 109.1,10.716 108.352,10.852 Z M147.584,49 L147.584,15.748 L137.248,15.748 L137.248,49 L147.584,49 Z M142.416,1.264 C139.084,1.264 136.908,3.508 136.976,6.5 C136.908,9.356 139.084,11.668 142.348,11.668 C145.748,11.668 147.924,9.356 147.924,6.5 C147.856,3.508 145.748,1.264 142.416,1.264 Z M152.476,47.368 C154.992,48.728 158.868,49.748 163.22,49.748 C172.74,49.748 177.636,45.124 177.636,38.936 C177.568,34.04 174.916,30.844 168.592,28.668 C164.512,27.24 163.22,26.424 163.22,24.86 C163.22,23.16 164.648,22.14 167.164,22.14 C170.02,22.14 172.876,23.228 174.372,24.044 L176.208,16.904 C174.168,15.884 170.7,15 166.824,15 C158.596,15 153.292,19.692 153.292,25.948 C153.224,29.824 155.876,33.564 162.744,35.876 C166.62,37.168 167.64,37.984 167.64,39.684 C167.64,41.384 166.348,42.472 163.22,42.472 C160.16,42.472 156.216,41.112 154.312,39.956 L152.476,47.368 Z M192.728,0.72 L182.392,0.72 L182.392,49 L192.728,49 L192.728,38.596 L195.38,35.332 L203.404,49 L216.12,49 L202.52,29.212 L214.42,15.748 L201.976,15.748 L195.244,25.744 C194.428,27.036 193.612,28.396 192.864,29.756 L192.728,29.756 L192.728,0.72 Z" id="catrisk"></path>
                    <path d="M374.808,33.632 L351.688,33.632 C351.824,41.724 356.992,45.056 362.976,45.056 C367.26,45.056 369.844,44.308 372.088,43.356 L373.108,47.64 C371,48.592 367.396,49.748 362.16,49.748 C352.028,49.748 345.976,43.016 345.976,33.088 C345.976,23.16 351.824,15.34 361.412,15.34 C372.156,15.34 375.012,24.792 375.012,30.844 C375.012,32.068 374.876,33.02 374.808,33.632 Z M351.756,29.348 L369.232,29.348 C369.3,25.54 367.668,19.624 360.936,19.624 C354.884,19.624 352.232,25.2 351.756,29.348 Z M328.3,49 L328.3,26.356 C328.3,22.48 328.232,19.148 328.028,16.088 L333.264,16.088 L333.468,22.548 L333.74,22.548 C335.236,18.128 338.84,15.34 342.852,15.34 C343.532,15.34 344.008,15.408 344.552,15.544 L344.552,21.188 C343.94,21.052 343.328,20.984 342.512,20.984 C338.296,20.984 335.304,24.18 334.488,28.668 C334.352,29.484 334.216,30.436 334.216,31.456 L334.216,49 L328.3,49 Z M306.408,15.34 C315.86,15.34 322.252,22.208 322.252,32.272 C322.252,44.444 313.82,49.748 305.864,49.748 C296.956,49.748 290.088,43.22 290.088,32.816 C290.088,21.8 297.296,15.34 306.408,15.34 Z M306.272,19.828 C299.2,19.828 296.14,26.356 296.14,32.612 C296.14,39.82 300.288,45.26 306.136,45.26 C311.848,45.26 316.132,39.888 316.132,32.476 C316.132,26.9 313.344,19.828 306.272,19.828 Z M286.352,43.288 L287.372,47.776 C285.808,48.592 282.34,49.748 277.92,49.748 C267.992,49.748 261.532,42.948 261.532,32.884 C261.532,22.752 268.468,15.408 279.212,15.408 C282.748,15.408 285.876,16.292 287.508,17.108 L286.148,21.732 C284.72,20.916 282.476,20.168 279.212,20.168 C271.664,20.168 267.584,25.744 267.584,32.612 C267.584,40.228 272.48,44.92 279.008,44.92 C282.408,44.92 284.652,44.036 286.352,43.288 Z M229.372,46.756 L230.868,41.792 C233.52,43.424 237.396,44.784 241.476,44.784 C247.528,44.784 251.064,41.588 251.064,36.964 C251.064,32.68 248.616,30.232 242.428,27.852 C234.948,25.2 230.324,21.324 230.324,14.864 C230.324,7.724 236.24,2.42 245.148,2.42 C249.84,2.42 253.24,3.508 255.28,4.664 L253.648,9.492 C252.152,8.676 249.092,7.316 244.944,7.316 C238.688,7.316 236.308,11.056 236.308,14.184 C236.308,18.468 239.096,20.576 245.42,23.024 C253.172,26.016 257.116,29.756 257.116,36.488 C257.116,43.56 251.88,49.748 241.068,49.748 C236.648,49.748 231.82,48.388 229.372,46.756 Z" id="score" fill-opacity="0.75"></path>
                </g>
            </g>
        </g>
    </g>
</svg>