<?xml version="1.0" encoding="UTF-8"?>
<svg width="33px" height="50px" viewBox="0 0 33 50" version="1.1" xmlns="http://www.w3.org/2000/svg" xmlns:xlink="http://www.w3.org/1999/xlink">
    <!-- Generator: Sketch 42 (36781) - http://www.bohemiancoding.com/sketch -->
    <title>catrisk-graphic</title>
    <desc>Created with Sketch.</desc>
    <defs></defs>
    <g id="Symbols" stroke="none" stroke-width="1" fill="none" fill-rule="evenodd">
        <g id="catrisk-graphic" fill="#FFFFFF">
            <g id="Group-2" transform="translate(1.000000, 6.000000)">
                <polygon id="Fill-1" points="27.211864 20.2656303 28.6012744 19.5643387 30 18.8476341 29.8564491 18.5602562 29.7179141 18.2808334 29.4253187 17.7339204 29.2707805 17.4622041 29.1205417 17.1999344 28.9617042 16.9364218 28.8035832 16.6811129 28.4706215 16.17671 28.2967362 15.9293562 28.125956 15.6912004 27.7652874 15.2181207 27.5806537 14.9881686 27.3981697 14.7661717 27.203743 14.5387056 27.0100329 14.3221778 26.8120234 14.104407 26.6147304 13.8940941 26.4085999 13.6847756 26.2022306 13.4836607 25.9927561 13.2815515 25.7820874 13.0886404 25.342836 12.7062985 25.1175972 12.5215911 24.8959412 12.3445902 24.4323267 11.9945659 24.1949064 11.8262658 23.9570084 11.6666667 23.9097154 11.9622483 23.8581231 12.2588243 23.8027091 12.5499311 23.7429958 12.8457613 23.7074066 12.9862185 23.6756391 13.1294103 23.6087601 13.4172854 23.5695882 13.5567482 23.5497633 13.6275983 23.5332824 13.7014315 23.4578048 13.9895553 23.3713398 14.2645033 23.2836806 14.5441747 23.1888558 14.8198686 23.0937921 15.0955625 22.991324 15.3618096 22.8836011 15.6337745 22.7727731 15.8965414 22.7137764 16.0282977 22.6581235 16.1632858 22.5353528 16.4188433 22.4089994 16.6776325 22.2778689 16.9329415 22.1436332 17.190985 22.0007989 17.4378416 21.85892 17.6884272 21.7084423 17.9355324 21.5574869 18.1816432 21.3955443 18.4207934 21.2326463 18.6594463 21.0664043 18.8933759 20.8963407 19.1310345 20.84857 19.1844828 20.8053375 19.2443946 20.718156 19.3585005 20.5361497 19.5889498 20.4406083 19.6988296 20.349844 19.8141785 20.1637772 20.0441305 20.1126626 20.0933527 20.0648919 20.1477954 19.9703059 20.2502173 19.7797009 20.4505863 19.6815322 20.5418213 19.5857519 20.6362881 19.4863889 20.7265288 19.3915641 20.8209956 19.2888571 20.9027839 19.2370259 20.9447968 19.1906884 20.99029 18.9917235 21.1513807 18.8885388 21.2232252 18.7894146 21.2978042 18.6874242 21.3684057 18.5878223 21.4417418 18.5324083 21.471822 18.4812937 21.503891 18.3776313 21.5682776 18.3229339 21.5981092 18.2711027 21.630924 18.1676792 21.6928246 17.9546219 21.7994726 17.846899 21.8489434 17.7444309 21.9018945 17.5225361 21.9886548 17.4117081 22.0289275 17.3570107 22.0500582 17.3044629 22.0749179 17.0830458 22.1447736 16.8616287 22.2113975 16.7429185 22.2312853 16.6270746 22.2568907 16.3987307 22.301141 16.279304 22.3133222 16.1644155 22.3309726 16.0457054 22.3409165 15.9864697 22.346137 15.9310557 22.3553351 15.8675207 22.3553351 15.8080462 22.3580696 15.6893361 22.3632902 15.4521546 22.3667705 15.3881419 22.3632902 15.329384 22.3632902 15.2104349 22.3580696 15.0874254 22.3508603 14.9689541 22.346137 14.842123 22.3309726 14.7790657 22.3222717 14.7193523 22.3170512 14.5925211 22.2966662 14.4695116 22.2810046 14.2165659 22.2312853 13.9629035 22.1778369 13.7011202 22.1072355 13.6347189 22.0878449 13.5714228 22.0711889 13.4443527 22.0324078 13.183286 21.9476363 12.9217415 21.8564013 12.6566142 21.7450299 12.399369 21.6254548 12.141885 21.4989191 11.8961049 21.3723833 11.6469807 21.2281971 11.4088439 21.0787905 11.1714236 20.9199371 10.9459459 20.7588464 11.136551 20.9075073 11.3262006 21.0516934 11.5203884 21.1911562 11.7176814 21.3276359 11.9159297 21.4541716 12.1139392 21.5779728 12.5211843 21.8086707 12.9291459 22.0137631 13.3490502 22.2031938 13.7734928 22.3667705 14.2089225 22.5141884 14.4222187 22.577332 14.6436358 22.6347579 15.0917248 22.7334508 15.3131419 22.7724805 15.5429189 22.8112616 16.0067723 22.8696819 16.4694313 22.9022481 16.9445108 22.9166667 17.4243673 22.909706 17.9149722 22.8848463 18.5164052 22.8271718 18.8175993 22.7908767 19.1221374 22.7578133 19.2690323 22.7334508 19.41951 22.7128173 19.7207041 22.6708044 20.0171212 22.6215823 20.3183154 22.5728573 20.6116274 22.5141884 20.9082833 22.4575084 21.5025506 22.3309726 22.0884581 22.1905154 22.6738878 22.0378769 22.95884 21.9511167 23.1019132 21.9056234 23.248808 21.8665937 23.8270722 21.6803947 24.3969764 21.4795285 24.9668807 21.2652381 25.5289028 21.0350374 25.8102721 20.9129764 26.0947465 20.7926555 26.3720554 20.6643796 26.5113069 20.5982528 26.6539024 20.5378438 26.9307335 20.4018613 26.9978513 20.3648204 27.0690297 20.333"></polygon>
                <polygon id="Fill-2" points="13.2008619 0 12.9674153 0.207428686 12.7468189 0.422623422 12.3130032 0.857522213 11.8946554 1.30093861 11.5001044 1.76113969 11.1172138 2.22058922 10.7550265 2.69657292 10.4111627 3.18157526 10.2460129 3.42608057 10.0875262 3.679354 9.77673993 4.17988844 9.62634414 4.43241031 9.48427722 4.69445187 9.34244828 4.94997996 9.20823431 5.21577928 8.95575023 5.75038413 8.82938921 6.01518137 8.71516455 6.28849623 8.49433022 6.83963525 8.28896381 7.39954239 8.10810811 7.97548266 8.39152803 7.93690293 8.67970731 7.91260271 8.96360317 7.88780146 9.25202043 7.8757766 9.82028808 7.85849088 10.3876039 7.86600641 10.6636468 7.8757766 10.9437351 7.89180974 11.2209679 7.91260271 11.5001044 7.94216381 12.0529041 8.01205825 12.604752 8.10750551 12.8731799 8.15660699 13.1449394 8.21923642 13.4138433 8.28136482 13.6858407 8.35526755 14.2217448 8.50883493 14.4870791 8.59576458 14.7545552 8.69171287 15.0151302 8.78640858 15.2795126 8.8898724 15.5403256 8.99809607 15.8039942 9.11408578 16.3249062 9.35433229 16.8453423 9.62338834 17.08569 9.75541118 17.3188987 9.89670319 17.5433025 10.0377447 17.7610433 10.19031 17.9654578 10.3438773 18.1665408 10.5059623 18.3607227 10.6723061 18.5456238 10.8454139 18.715533 11.0157659 18.8806828 11.1978923 19.0351241 11.3802692 19.1890894 11.57417 19.3268729 11.7703253 19.4608489 11.9729942 19.5836404 12.1801724 19.705718 12.3951166 19.8085202 12.6065535 19.906325 12.8307669 19.9974668 13.0539782 20.0798037 13.2899659 20.1473867 13.5224464 20.2147316 13.7664507 20.2694642 14.0107055 20.3215792 14.2674861 20.3560846 14.5210101 20.3874964 14.7858073 20.4079616 15.0503541 20.4241435 15.3284288 20.427951 15.6024952 20.4241435 15.8875843 20.4115312 16.1736756 20.3960632 16.4710401 20.360844 16.7616407 20.3215792 17.0517403 20.2932611 17.1927817 20.2694642 17.33708 20.2147316 17.6266785 20.1435792 17.910014 20.0686192 18.1903434 20.0448224 18.2574821 20.032924 18.290801 20.0248331 18.3273766 19.9855684 18.4681675 19.8953785 18.75 19.9817609 18.510004 20.0645738 18.2777741 20.1435792 18.0455441 20.2185391 17.8138152 20.2856461 17.5740697 20.3487076 17.3415893 20.4591248 16.8773799 20.502435 16.6371334 20.5426515 16.4059055 20.5771569 16.1654085 20.6092826 15.932427 20.6326035 15.6929321 20.6523548 15.4609526 20.6756757 14.9887267 20.6756757 14.7487307 20.6725821 14.5082337 20.6487853 14.0360077 20.628558 13.7957612 20.6047612 13.5560158 20.5735874 13.3152682 20.5426515 13.078529 20.4991034 12.8387835 20.4512718 12.5987875 20.3408547 12.118545 20.2777931 11.8737892 20.2106861 11.6327911 20.0605283 11.1527991 19.847309 10.550805 19.6271885 9.9590821 19.3942178 9.37462422 19.1493487 8.79968602 18.8890117 8.22349522 18.6208217 7.66358808 18.3371639 7.10468301 18.0447011 6.56181108 17.733439 6.01969069 17.4136099 5.48533636 17.0823584 4.95849756 16.7394465 4.4406774 16.3798768 3.92260672 16.0131681 3.42157125 15.6307535 2.92454406 15.2402479 2.44029327 14.7355177 1.82727637 14.4787502 1.52064266 14.2260282 1.21801724"></polygon>
                <polygon id="Fill-3" points="13.0448952 11.6666667 12.8028275 11.6666667 12.5655389 11.6731246 12.0821203 11.7076498 11.4722912 11.7563328 10.8658075 11.8266252 10.2638641 11.9085915 9.66980638 12.0114219 9.07144738 12.122449 8.48121307 12.2538435 7.8950411 12.3926895 7.31675485 12.5533931 6.73392833 12.7173257 6.15970442 12.9065934 5.58548051 13.1038093 5.01914232 13.3218893 4.45232621 13.5476692 3.88957244 13.7943133 3.3315979 14.0486573 2.78079219 14.3238654 1.38693116 15.0267885 0 15.7490856 0.27289376 16.30745 0.562514808 16.8538921 0.709475983 17.1204068 0.863367035 17.387915 1.18405305 17.9047995 1.51358063 18.4065327 1.85768484 18.8913758 2.03236552 19.1248556 2.21469297 19.358087 2.59057903 19.8195821 2.77696881 20.0376622 2.97100536 20.256239 3.16528086 20.4698482 3.36720313 20.6822154 3.77558792 21.0925437 3.98515695 21.2885177 4.20308962 21.4874723 4.41672098 21.6759948 4.63847703 21.8652625 4.86023308 22.0450916 5.09035278 22.2286464 5.55322074 22.5791145 5.79146512 22.7480148 6.03711729 22.9166667 6.07582902 22.6138881 6.1284005 22.3173191 6.24334086 21.7293971 6.37381371 21.1496718 6.52866061 20.5873332 6.60727886 20.3036801 6.69880102 20.028472 6.88901419 19.4817816 7.09906114 18.9450265 7.20993916 18.6785118 7.32870291 18.4192002 7.57411612 17.897348 7.70124351 17.6385332 7.83936312 17.387915 8.12492183 16.8901559 8.43007536 16.4018355 8.75100033 15.9214632 8.91660049 15.6837609 9.09080325 15.4537585 9.45139579 14.9984729 9.83230004 14.5496453 10.0184509 14.3367813 10.2084251 14.1345977 10.3986382 13.9460752 10.5962592 13.7689783 10.7907737 13.596849 10.9929349 13.4368905 11.1946182 13.2841351 11.4006028 13.1495117 11.6070653 13.0133979 11.8163954 12.8949194 12.0266813 12.7836439 12.2450919 12.685036 12.4587233 12.5908989 12.6809572 12.509181 12.9017574 12.4388886 13.1318771 12.3810155 13.3581734 12.3278616 13.5870983 12.2824075 13.817218 12.249621 14.0549845 12.2290052 14.2927509 12.2163377 14.5345797 12.2133571 14.7759306 12.2208086 15.0254062 12.2419211 15.2705804 12.2660142 15.5205339 12.3027749 15.7704874 12.3482289 16.0271318 12.4103246 16.284971 12.4754009 16.5466335 12.5533931 16.8078182 12.6398303 17.0771275 12.7384382 17.3387901 12.8407719 17.5966293 12.9604924 17.8501672 13.0794678 18.0994038 13.2153331 18.3409937 13.3497082 18.5833004 13.5022152 18.8205889 13.6631672 19.0540541 13.831074 18.665503 13.5310276 18.468121 13.3916849 18.2733676 13.2605388 18.0719233 13.1291443 17.8738244 13.0049529 17.6714242 12.8852324 17.4745201 12.7794214 17.2632784 12.6691395 17.0580106 12.5660606 16.8482027 12.4674527 16.6415012 12.3810155 16.4281088 12.2903558 16.2183008 12.2133571 16.0001291 12.1385939 15.7864978 12.0735176 15.5642638 12.0034737 15.3465701 11.9458489 15.1202738 11.8924466 14.8982788 11.8467442 14.6681591 11.8017869 14.4430576 11.7697455 14.2136548 11.7359655 13.9873584 11.7163432 13.7503089 11.6905114 13.5161268 11.6783407 13.2788383 11.6666667"></polygon>
                <polygon id="Fill-4" points="14.2558333 18.6696566 14.3758245 18.7830441 14.5078464 18.886302 14.6392351 18.9673398 14.7804384 19.0428226 14.9225915 19.0911839 15.0796247 19.1349704 15.2379244 19.1565369 15.4054054 19.1666667 15.5624387 19.1565369 15.7201051 19.1349704 15.7935561 19.1130771 15.8720728 19.0911839 16.0199246 19.0428226 16.1554292 18.9673398 16.2928332 18.886302 16.4172568 18.7830441 16.5442131 18.6696566 16.6534399 18.5402575 16.754435 18.4105316 16.8326351 18.268062 16.9070359 18.1291867 16.9542092 17.9782211 16.9747881 17.89751 16.9950505 17.821047 17.0159461 17.6599516 17.027027 17.4968957 17.0159461 17.3233833 16.9950505 17.1603274 16.9542092 17.0002124 16.9070359 16.8538215 16.8326351 16.7084109 16.754435 16.5724766 16.6534399 16.4375225 16.5442131 16.3182531 16.4172568 16.1993105 16.2928332 16.1035683 16.1554292 16.0159952 16.0199246 15.9519492 15.8720728 15.8977061 15.7201051 15.8604549 15.5624387 15.8369278 15.4054054 15.8333333 15.2379244 15.8369278 15.0796247 15.8604549 14.9225915 15.8977061 14.7804384 15.9519492 14.6392351 16.0159952 14.5078464 16.1035683 14.3758245 16.1993105 14.2558333 16.3182531 14.1402746 16.4375225 14.0456114 16.5724766 13.9617126 16.7084109 13.8983927 16.8538215 13.845204 17.0002124 13.8091117 17.1603274 13.7885328 17.3233833 13.7837838 17.4968957 13.7885328 17.6599516 13.8091117 17.821047 13.845204 17.9782211 13.8983927 18.1291867 13.9617126 18.268062 14.0456114 18.4105316 14.1402746 18.5402575"></polygon>
                <polygon id="Fill-5" points="10.3443999 16.7134578 10.1912674 17.1776672 10.0566819 17.6461353 9.95039275 18.1188623 9.85979727 18.5865789 9.79749801 19.0580533 9.75350807 19.5307803 9.73400983 20.007766 9.72972973 20.4797415 9.75350807 20.9562262 9.79749801 21.4367192 9.86407737 21.9167112 9.94658822 22.3972042 10.060962 22.8784488 10.1912674 23.3586913 10.3484422 23.8477019 10.5538871 24.4444352 10.6604141 24.738042 10.7743123 25.0359075 10.8841683 25.3267586 11.0028222 25.621117 11.2510681 26.2000635 11.508112 26.7682377 11.7794229 27.331151 12.059294 27.8857973 12.2048174 28.1598637 12.3591389 28.4369363 12.6627883 28.976301 12.820201 29.2405972 12.9856982 29.5099038 13.1469154 29.7729474 13.3171683 30.035991 13.4859946 30.2930222 13.6638566 30.5560659 13.8372007 30.8068341 14.0183917 31.0636148 14.389096 31.5696606 14.771214 32.0669383 15.1692634 32.5609593 16.1781785 33.7769724 16.6870351 34.3874841 17.2037385 35 17.4274927 34.7845547 17.648869 34.5691095 17.700468 34.5109894 17.755396 34.4573786 17.8657275 34.3499065 18.0828238 34.1347117 18.1853085 34.0172189 18.2371452 33.9606019 18.2908843 33.9052375 18.496567 33.6832788 18.5950093 33.5665375 18.6982073 33.453554 18.8979454 33.2310943 19.0876966 32.9951066 19.2764966 32.7631271 19.4586387 32.5266384 19.6398297 32.2906507 19.8131738 32.0463959 19.9829512 31.8043958 20.1482107 31.5621451 20.3132324 31.3163872 20.4677916 31.059857 20.5029835 30.9937204 20.5422178 30.9313414 20.6211619 30.8068341 20.7676365 30.551306 20.8380204 30.4225399 20.9129222 30.2982831 21.0515499 30.0327343 21.1844709 29.7729474 21.3143006 29.5076491 21.3777888 29.3746242 21.409414 29.3069844 21.4448437 29.2441045 21.5630221 28.9720422 21.6814382 28.7027357 21.795812 28.4284187 21.9063813 28.1563565 22.008866 27.8730209 22.0566605 27.733232 22.0794877 27.6628365 22.1070706 27.5964493 22.2014706 27.309857 22.2972973 27.0295277 22.0050615 27.0568341 21.7168679 27.0826375 21.4296256 27.1039315 21.1457122 27.1199646 20.573843 27.1372503 20.2901674 27.1372503 20.0100585 27.13224 19.7261451 27.1199646 19.4472251 27.1039315 18.8908119 27.05483 18.6147453 27.0205091 18.3386788 26.9831819 17.7948681 26.8919935 17.2470151 26.7752522 16.9752286 26.7106186 16.7077222 26.6394716 16.1712828 26.4818959 15.6426903 26.3085376 15.3747083 26.2088316 15.1143355 26.1048667 14.8542004 25.9973946 14.5935898 25.8856637 14.0735574 25.6464193 13.8141357 25.5171521 13.5611341 25.3826241 13.3171683 25.2443383 13.0846161 25.1032968 12.8599108 24.9579965 12.6425767 24.8089385 12.4342785 24.6511123 12.2326381 24.4892778 12.0397957 24.3241867 11.9453957 24.236756 11.8586048 24.1545861 11.6812183 23.9767186 11.5161966 23.7938406 11.4329724 23.6996459 11.3583084 23.6054513 11.2113583 23.4213207 11.0694016 23.2239128 10.9398096 23.023248 10.8173511 22.8153183 10.7029773 22.6088917 10.6442448 22.4961587 10.5933591 22.3901897 10.494679 22.1642227 10.4045591 21.9375042 10.3605692 21.822266 10.3249017 21.7115372 10.2492865 21.4697876 10.187225 21.2292905 10.128017 20.9815285 10.0847404 20.7325139 10.0407505 20.4707228 10.0136431 20.2101844 9.99794944 20.0723996 9.99010258 19.9398757 9.97773785 19.6728238 9.97464666 19.3939976 9.97773785 19.1116641 9.99010258 18.8265749 10.0136431 18.5364754 10.0407505 18.2391108 10.0847404 17.9480092 10.1361016 17.6579097 10.1945963 17.373071 10.261889 17.0872303 10.3408331 16.8048968 10.423344 16.5233149 10.5217863 16.25"></polygon>
            </g>
        </g>
    </g>
</svg>