<?xml version="1.0" encoding="UTF-8"?>
<svg width="69px" height="80px" viewBox="0 0 69 80" version="1.1" xmlns="http://www.w3.org/2000/svg" xmlns:xlink="http://www.w3.org/1999/xlink">
    <!-- Generator: Sketch 42 (36781) - http://www.bohemiancoding.com/sketch -->
    <title>cx-icon-big</title>
    <desc>Created with Sketch.</desc>
    <defs></defs>
    <g id="Logins" stroke="none" stroke-width="1" fill="none" fill-rule="evenodd">
        <g id="Risk-Analytics" transform="translate(-43.000000, -280.000000)" fill="#FFFFFF">
            <g id="Group" transform="translate(40.000000, 275.000000)">
                <g id="cx-icon-big" transform="translate(3.000000, 5.000000)">
                    <polygon id="Fill-1" points="62.4152533 45.3444557 65.6966267 43.848367 69 42.3193972 68.6609755 41.7063243 68.3337971 41.1102223 67.6427739 39.9434746 67.2778008 39.3638131 66.9229815 38.8043046 66.5478545 38.2421443 66.1744199 37.6974853 65.3880636 36.6214257 64.9773984 36.0937376 64.5740664 35.585672 63.7222745 34.5764352 63.2862247 34.0858709 62.8552518 33.6122774 62.3960739 33.1270164 61.9385882 32.6650904 61.4709488 32.2005127 61.0050017 31.7518451 60.5181828 31.305299 60.0307999 30.876254 59.5360836 30.4450877 59.0385469 30.033544 58.0011658 29.2178813 57.4692189 28.8238388 56.9457335 28.4462368 55.8508142 27.6995183 55.2900982 27.3404782 54.7282539 27 54.616562 27.6305741 54.4947163 28.2632695 54.3638449 28.8842975 54.2228198 29.515402 54.1387688 29.815044 54.0637434 30.1205197 53.9057952 30.7346533 53.8132827 31.032174 53.7664623 31.1833208 53.7275394 31.3408317 53.5492836 31.9554956 53.3450792 32.5420515 53.1380542 33.1386839 52.9141063 33.7268308 52.6895942 34.3149777 52.4475951 34.8829717 52.1931857 35.4631635 51.931443 36.0237327 51.7921101 36.3048128 51.6606747 36.5927874 51.3707269 37.1379768 51.0723177 37.6900605 50.7626265 38.2347196 50.4456019 38.7852124 50.1082697 39.3118398 49.7731939 39.8464224 49.4178105 40.3735802 49.0612989 40.8986167 48.6788387 41.4088036 48.2941221 41.9179299 47.901508 42.4169797 47.4998684 42.9239846 47.3870482 43.0380077 47.284946 43.1658196 47.0790493 43.4092456 46.6492046 43.9008706 46.4235644 44.1352809 46.2092061 44.3813586 45.7697717 44.8719229 45.6490542 44.9769302 45.5362341 45.0930746 45.3128502 45.3115747 44.8626979 45.7390286 44.6308525 45.9336633 44.4046482 46.1351925 44.1699823 46.3277058 43.9460344 46.529235 43.7034711 46.7037168 43.5810613 46.7933442 43.4716257 46.8903964 43.0017299 47.2340567 42.7580384 47.3873249 42.5239367 47.5464268 42.2830657 47.6970434 42.0478357 47.8534936 41.9169644 47.9176647 41.7962469 47.9860786 41.5514272 48.1234366 41.4222481 48.1870774 41.2998383 48.2570822 41.0555827 48.3891369 40.5524049 48.6166527 40.2979956 48.7221903 40.0559964 48.8351527 39.5319469 49.0202413 39.2702042 49.1061564 39.1410252 49.1512352 39.016923 49.2042692 38.4940017 49.3532947 37.9710804 49.4954258 37.6907224 49.537853 37.4171336 49.592478 36.8778534 49.6868785 36.5958031 49.7128652 36.3244707 49.7505193 36.0441127 49.7717329 35.9042157 49.78287 35.7733444 49.8024926 35.6232936 49.8024926 35.4828325 49.8083263 35.2024745 49.8194635 34.6423226 49.8268882 34.4911436 49.8194635 34.3523749 49.8194635 34.0714527 49.8083263 33.7809409 49.7929465 33.501147 49.78287 33.2016096 49.7505193 33.052687 49.7319574 32.9116618 49.7208203 32.6121244 49.6773324 32.3216126 49.643921 31.72423 49.537853 31.1251551 49.4238299 30.5069008 49.2732134 30.3500809 49.2318469 30.2005942 49.1963141 29.9004926 49.1135811 29.2839307 48.9327352 28.6662405 48.7381005 28.0400888 48.5005082 27.4325524 48.2454148 26.8244519 47.9754718 26.2439923 47.7055288 25.6556354 47.3979317 25.093227 47.0791974 24.532511 46.7403102 24 46.39665 24.4501523 46.7137933 24.8980482 47.0213904 25.356662 47.318911 25.8226092 47.6100676 26.2908127 47.8800106 26.7584521 48.1441199 27.7202437 48.6362752 28.6837276 49.0738056 29.6754165 49.4779246 30.6778233 49.8268882 31.7061788 50.1413798 32.2099206 50.2760861 32.7328419 50.3985946 33.7910947 50.6091395 34.314016 50.6924029 34.8566808 50.7751359 35.9521643 50.8997658 37.0448272 50.9692403 38.1668234 51 39.3001015 50.9851505 40.4587642 50.9321165 41.8791696 50.8090777 42.5905005 50.731648 43.3097289 50.6611128 43.6566507 50.6091395 44.0120341 50.5651213 44.723365 50.4754939 45.4234139 50.3704866 46.1347448 50.26654 46.8274604 50.1413798 47.5280734 50.0204623 48.9315558 49.7505193 50.3152946 49.4508773 51.6979053 49.1252486 52.3708774 48.94016 52.7087736 48.8431078 53.0556955 48.7598444 54.4213832 48.3626199 55.7673273 47.9341053 57.1132714 47.4769523 58.4406002 46.9858576 59.1051108 46.7254607 59.7769546 46.4687762 60.4318754 46.1951209 60.7607461 46.0540505 61.0975142 45.9251779 61.7513068 45.635082 61.9098191 45.5560613 62.0779211 45.4881778"></polygon>
                    <polygon id="Fill-2" points="32.1568962 0 31.5996364 0.464640257 31.0730516 0.946676465 30.0374915 1.92084976 29.0388548 2.91410248 28.0970234 3.9449529 27.1830266 4.97411985 26.3184504 6.04032333 25.4976142 7.12672857 25.1033856 7.67442047 24.7250625 8.24175296 23.9831856 9.3629501 23.6241763 9.9285991 23.2850489 10.5155722 22.9464894 11.0879551 22.6261077 11.6833456 22.0234038 12.8808604 21.7217678 13.4740063 21.4491025 14.0862315 20.9219496 15.320783 20.4317201 16.5749749 20 17.8650812 20.6765508 17.7786626 21.3644626 17.7242301 22.0421495 17.6686753 22.7306294 17.6417396 24.0871393 17.6030196 25.441377 17.6198544 26.1003181 17.6417396 26.7689162 17.6776538 27.4306976 17.7242301 28.0970234 17.7904469 29.4166099 17.9470105 30.7339241 18.1608123 31.3746876 18.2707997 32.0234038 18.4110896 32.6653033 18.5502572 33.3145876 18.7157993 34.5938423 19.0597902 35.2272211 19.2545127 35.8657123 19.4694368 36.4877301 19.6815552 37.1188366 19.9133142 37.7414224 20.1557352 38.3708248 20.4155521 39.6142922 20.9537043 40.8566235 21.5563899 41.4303567 21.8521211 41.9870484 22.1686151 42.5227221 22.4845481 43.0424903 22.8262943 43.5304476 23.1702853 44.0104522 23.5333556 44.4739832 23.9059657 44.9153601 24.293727 45.3209498 24.6753157 45.7151784 25.0832788 46.0838446 25.4918031 46.4513747 25.9261407 46.7802772 26.3655288 47.1000909 26.819507 47.3932061 27.2835861 47.6846171 27.7650611 47.9300159 28.2386799 48.1634856 28.7409179 48.3810498 29.2409112 48.577596 29.7695237 48.738923 30.2902799 48.8996819 30.8368495 49.030334 31.3839802 49.1547376 31.9591689 49.2371052 32.5270626 49.3120882 33.1202084 49.3609407 33.7127931 49.3995683 34.3356804 49.4086571 34.9495892 49.3995683 35.5881889 49.3694615 36.2290333 49.3325381 36.8951299 49.2484663 37.5460752 49.1547376 38.1958982 49.0871393 38.5118311 49.030334 38.8350591 48.8996819 39.4837598 48.7298341 40.1184314 48.5508975 40.7463692 48.4940923 40.89676 48.4656896 40.9713942 48.4463758 41.0533235 48.3526471 41.3686953 48.1373551 42 48.3435583 41.462409 48.5412406 40.9422139 48.7298341 40.4220188 48.9087707 39.9029461 49.0689616 39.3659162 49.2194956 38.84516 49.483072 37.805331 49.5864576 37.2671788 49.6824585 36.7492284 49.7648262 36.2105151 49.8415133 35.6886365 49.8971825 35.1521678 49.9443308 34.6325339 50 33.5747478 50 33.0371568 49.9926153 32.4984434 49.93581 31.4406574 49.8875256 30.9025052 49.8307203 30.3654753 49.7563054 29.8262008 49.6824585 29.2959049 49.5785049 28.758875 49.4643263 28.221284 49.2007498 27.1455408 49.0502159 26.5972877 48.890025 26.0574521 48.5315837 24.98227 48.0226085 23.6338032 47.4971597 22.3083439 46.9410361 20.9991583 46.3565099 19.7112967 45.7350602 18.4206293 45.0948648 17.1664373 44.417746 15.9144899 43.7196092 14.6984568 42.9765962 13.4841072 42.2131334 12.2871535 41.422404 11.1070345 40.60384 9.94711738 39.7455124 8.78663905 38.8701431 7.66431959 37.9572824 6.55097869 37.0251079 5.46625693 35.8202681 4.09309907 35.2073392 3.40623956 34.6040673 2.72835861"></polygon>
                    <polygon id="Fill-3" points="30.8081568 27 30.2364649 27 29.67606 27.013777 28.5343692 27.0874307 27.0941345 27.1912878 25.6618007 27.3412448 24.2401896 27.5161062 22.8372023 27.7354779 21.4240566 27.9723357 20.030099 28.2526439 18.6457354 28.5488486 17.2799955 28.891683 15.9035329 29.241406 14.547387 29.645177 13.1912412 30.0659042 11.8537191 30.5311417 10.5150683 31.0128055 9.18601151 31.5389795 7.86824185 32.0815799 6.56740284 32.6686905 3.27551827 34.16826 0 35.7091604 0.644493773 36.9003378 1.32849242 38.0660809 1.67557094 38.6346455 2.03901576 39.2053297 2.7963806 40.3080167 3.57462658 41.3783808 4.38729824 42.4127128 4.79984198 42.910803 5.23044509 43.4083633 6.118176 44.3928863 6.55837315 44.8581238 7.01662967 45.324421 7.47545054 45.7801205 7.95233079 46.2331707 8.91681403 47.1085377 9.41175364 47.5266156 9.92644569 47.951052 10.4309793 48.3532334 10.9547011 48.7570044 11.4784228 49.1406398 12.021897 49.5322235 13.1150532 50.2798887 13.6777155 50.6402093 14.2578728 51 14.3492983 50.3540724 14.4734565 49.7213918 14.7449114 48.4671583 15.0530494 47.2304109 15.4187516 46.0307553 15.6044245 45.4256287 15.8205726 44.8385181 16.2697995 43.6722452 16.7658678 42.5271676 17.0277287 41.9586029 17.3082133 41.4054048 17.8878062 40.2921202 18.1880432 39.7399819 18.5142406 39.2053297 19.1886452 38.1434438 19.9093269 37.1016934 20.6672561 36.0768993 21.0583543 35.5698011 21.4697694 35.0791292 22.3213815 34.1078533 23.2209639 33.1503544 23.6605967 32.6962445 24.1092592 32.2649195 24.558486 31.8627382 25.0252079 31.4849314 25.4845931 31.1177224 25.9620377 30.7764776 26.4383536 30.4505994 26.9248279 30.1634027 27.4124309 29.8730267 27.9068061 29.6202724 28.4034388 29.3828848 28.9192596 29.1725211 29.4237932 28.9716954 29.9486437 28.7973638 30.470108 28.6474069 31.0135822 28.5239441 31.5480266 28.4105491 32.088679 28.3135805 32.6321532 28.2436359 33.1936867 28.1996556 33.7552203 28.1726315 34.3263479 28.1662729 34.8963467 28.1821694 35.4855337 28.2272095 36.0645622 28.2786082 36.6548779 28.3570309 37.2451936 28.4539995 37.8513112 28.5864703 38.4602506 28.7252997 39.0782196 28.891683 39.69506 29.0760824 40.3310885 29.286446 40.9490575 29.5047579 41.5579969 29.7601616 42.1567779 30.0139757 42.7454005 30.3038218 43.3159637 30.5904886 43.88822 30.9158369 44.4486249 31.2592012 45 31.6174022 44.0823583 30.9773033 43.6162008 30.6800389 43.1562512 30.4002605 42.6804996 30.1199523 42.2126491 29.8550107 41.7346401 29.599607 41.2696113 29.3738768 40.7707212 29.1386086 40.28594 28.9187071 39.7904361 28.7083435 39.3022687 28.5239441 38.7982994 28.3305367 38.3027954 28.1662729 37.787539 28.0067781 37.2830054 27.8679487 36.7581549 27.7185216 36.2440272 27.5955887 35.7095828 27.4816638 35.1852967 27.3841653 34.6418225 27.2882565 34.1101998 27.2199015 33.5684187 27.1478374 33.0339742 27.1059766 32.4741337 27.0508688 31.9210655 27.0249045 31.3606607 27"></polygon>
                    <polygon id="Fill-4" points="32.0188403 40.9562788 32.2778212 41.1943927 32.5627684 41.4112342 32.8463491 41.5814136 33.1511128 41.7399275 33.4579266 41.8414861 33.7968567 41.9334379 34.1385201 41.9787276 34.5 42 34.8389301 41.9787276 35.1792269 41.9334379 35.3377587 41.887462 35.5072237 41.8414861 35.8263374 41.7399275 36.1188012 41.5814136 36.4153651 41.4112342 36.6839125 41.1943927 36.9579266 40.9562788 37.1936743 40.6845407 37.4116556 40.4121165 37.5804373 40.1129301 37.7410191 39.821292 37.8428348 39.5042643 37.8872511 39.3347711 37.930984 39.1741986 37.9760836 38.8358984 38 38.493481 37.9760836 38.129105 37.930984 37.7866876 37.8428348 37.450446 37.7410191 37.1430252 37.5804373 36.837663 37.4116556 36.5522008 37.1936743 36.2687972 36.9579266 36.0183315 36.6839125 35.7685521 36.4153651 35.5674934 36.1188012 35.3835898 35.8263374 35.2490932 35.5072237 35.1351828 35.1792269 35.0569552 34.8389301 35.0075483 34.5 35 34.1385201 35.0075483 33.7968567 35.0569552 33.4579266 35.1351828 33.1511128 35.2490932 32.8463491 35.3835898 32.5627684 35.5674934 32.2778212 35.7685521 32.0188403 36.0183315 31.769426 36.2687972 31.5651113 36.5522008 31.3840297 36.837663 31.2473643 37.1430252 31.1325654 37.450446 31.0546661 37.7866876 31.0102499 38.129105 31 38.493481 31.0102499 38.8358984 31.0546661 39.1741986 31.1325654 39.5042643 31.2473643 39.821292 31.3840297 40.1129301 31.5651113 40.4121165 31.769426 40.6845407"></polygon>
                    <polygon id="Fill-5" points="23.4672772 39.0381455 23.101735 40.0779745 22.7804666 41.1273432 22.526744 42.1862516 22.3104838 43.2339368 22.1617694 44.2900394 22.0567612 45.3489478 22.010217 46.417396 22 47.4746209 22.0567612 48.5419467 22.1617694 49.6182511 22.3207008 50.6934331 22.5176622 51.7697375 22.7906836 52.8477253 23.101735 53.9234685 23.4769266 55.0188523 23.9673434 56.3555348 24.2216336 57.013214 24.4935198 57.6804329 24.7557565 58.3319393 25.0389949 58.991302 25.6315819 60.2881422 26.2451706 61.5608524 26.8928159 62.8217783 27.5608953 64.064186 27.9082739 64.6780947 28.2766541 65.2987374 29.0014947 66.5069143 29.3772539 67.0989378 29.7723119 67.7021845 30.1571529 68.2914022 30.5635631 68.8806199 30.9665676 69.4563698 31.3911415 70.0455875 31.8049307 70.6073084 32.237451 71.1824972 33.1223582 72.3160398 34.0345108 73.4299419 34.9846934 74.5365489 37.3930713 77.2604182 38.6077611 78.6279645 39.8411821 80 40.3753051 79.5174026 40.9037519 79.0348053 41.0269237 78.9046162 41.1580421 78.784528 41.4214141 78.5437905 41.9396439 78.0617543 42.1842847 77.7985704 42.3080241 77.6717483 42.4363045 77.547732 42.9272889 77.0505445 43.1622803 76.789044 43.4086239 76.535961 43.885418 76.0376511 44.3383725 75.5090387 44.7890564 74.9894048 45.2238473 74.45967 45.6563677 73.9310575 46.0701569 73.3839268 46.4754319 72.8418465 46.8699222 72.299205 47.263845 71.7487073 47.6327928 71.1740798 47.7167994 71.0259336 47.8104554 70.8862048 47.9989026 70.6073084 48.3485516 70.0349255 48.5165648 69.7464894 48.6953626 69.4681542 49.0262804 68.8733249 49.3435756 68.2914022 49.6534918 67.6971341 49.8050442 67.3991583 49.8805366 67.2476451 49.9651108 67.106794 50.247214 66.4973746 50.5298848 65.8941279 50.8029062 65.279658 51.0668458 64.6702385 51.3114866 64.0355668 51.4255766 63.7224397 51.4800674 63.5647538 51.5459104 63.4160465 51.7712523 62.7740798 52 62.146142 51.3024048 62.2073084 50.614459 62.2651079 49.9287836 62.3128065 49.2510548 62.3487207 47.8859478 62.3874407 47.2087866 62.3874407 46.5401396 62.3762175 45.8624108 62.3487207 45.1966019 62.3128065 43.8683897 62.2028192 43.2093921 62.1259403 42.5503945 62.0423275 41.2522657 61.8380653 39.9444875 61.5765649 39.295707 61.4317857 38.6571434 61.2724163 37.3766106 60.9194469 36.114809 60.5311243 35.4751102 60.3077828 34.853575 60.0749015 34.2326074 59.8341639 33.6105046 59.5838867 32.369137 59.0479792 31.7498723 58.7584207 31.1459331 58.457078 30.5635631 58.1473178 30.0084385 57.8313849 29.4720451 57.5059122 28.9532477 57.1720222 28.4560195 56.8184915 27.9746845 56.4559824 27.5143511 56.0861781 27.2890091 55.8903334 27.0818307 55.706273 26.6583921 55.3078496 26.2644694 54.898203 26.0658052 54.6872069 25.887575 54.4762108 25.5367907 54.0637584 25.1979263 53.6215646 24.8885778 53.1720756 24.5962575 52.706313 24.3232361 52.2439174 24.183036 51.9913956 24.061567 51.754025 23.826008 51.2478589 23.610883 50.7400094 23.5058748 50.4818759 23.420733 50.2338433 23.2402323 49.6923241 23.0920856 49.1536108 22.9507502 48.5986238 22.8474448 48.0408311 22.7424366 47.4544191 22.6777288 46.870813 22.6402664 46.5621752 22.6215352 46.2653217 22.5920194 45.6671254 22.5846404 45.0425546 22.5920194 44.4101276 22.6215352 43.7715278 22.6777288 43.1217049 22.7424366 42.4556083 22.8474448 41.8035407 22.970049 41.1537177 23.1096816 40.5156791 23.2703158 39.8753958 23.458763 39.2429688 23.6557244 38.6122253 23.8907158 38"></polygon>
                </g>
            </g>
        </g>
    </g>
</svg>