<?xml version="1.0" encoding="UTF-8"?>
<svg width="151px" height="50px" viewBox="0 0 151 50" version="1.1" xmlns="http://www.w3.org/2000/svg" xmlns:xlink="http://www.w3.org/1999/xlink">
    <!-- Generator: Sketch 42 (36781) - http://www.bohemiancoding.com/sketch -->
    <title>catrisk-logotype</title>
    <desc>Created with Sketch.</desc>
    <defs></defs>
    <g id="Symbols" stroke="none" stroke-width="1" fill="none" fill-rule="evenodd">
        <g id="catrisk-logotype" fill="#FFFFFF">
            <g id="CX-Risk" transform="translate(0.000000, 15.000000)">
                <path d="M13.988,15.412 C13.208,15.724 11.882,15.984 10.686,15.984 C7.15,15.984 5.07,13.774 5.07,10.264 C5.07,6.364 7.514,4.466 10.66,4.466 C12.064,4.466 13.182,4.778 13.988,5.116 L14.794,1.97 C14.092,1.606 12.532,1.19 10.478,1.19 C5.174,1.19 0.91,4.518 0.91,10.498 C0.91,15.49 4.03,19.286 10.088,19.286 C12.22,19.286 13.858,18.87 14.586,18.506 L13.988,15.412 Z M27.304,11.486 L27.304,15.906 C27.304,17.128 27.356,18.298 27.486,19 L23.924,19 L23.69,17.726 L23.612,17.726 C22.78,18.74 21.48,19.286 19.972,19.286 C17.398,19.286 15.864,17.414 15.864,15.386 C15.864,12.084 18.828,10.498 23.326,10.524 L23.326,10.342 C23.326,9.666 22.962,8.704 21.012,8.704 C19.712,8.704 18.334,9.146 17.502,9.666 L16.774,7.118 C17.658,6.624 19.4,6 21.714,6 C25.952,6 27.304,8.496 27.304,11.486 Z M23.456,14.372 L23.456,12.994 C21.376,12.968 19.764,13.462 19.764,14.996 C19.764,16.01 20.44,16.504 21.324,16.504 C22.312,16.504 23.118,15.854 23.378,15.048 C23.43,14.84 23.456,14.606 23.456,14.372 Z M30.662,3.894 L30.662,6.286 L28.972,6.286 L28.972,9.198 L30.662,9.198 L30.662,14.398 C30.662,16.192 31.026,17.414 31.754,18.168 C32.378,18.818 33.444,19.286 34.718,19.286 C35.836,19.286 36.772,19.13 37.292,18.922 L37.266,15.932 C36.876,16.01 36.642,16.036 36.096,16.036 C34.9,16.036 34.536,15.334 34.536,13.8 L34.536,9.198 L37.37,9.198 L37.37,6.286 L34.536,6.286 L34.536,2.828 L30.662,3.894 Z M39.688,19 L39.688,1.71 C40.962,1.502 42.86,1.346 44.966,1.346 C47.566,1.346 49.386,1.736 50.634,2.724 C51.674,3.556 52.246,4.778 52.246,6.39 C52.246,8.626 50.66,10.16 49.152,10.706 L49.152,10.784 C50.374,11.278 51.05,12.448 51.492,14.06 C52.038,16.036 52.584,18.324 52.922,19 L48.866,19 C48.58,18.48 48.164,17.076 47.644,14.918 C47.176,12.734 46.422,12.136 44.81,12.11 L43.614,12.11 L43.614,19 L39.688,19 Z M43.614,4.414 L43.614,9.25 L45.174,9.25 C47.15,9.25 48.32,8.262 48.32,6.728 C48.32,5.116 47.228,4.31 45.408,4.284 C44.446,4.284 43.9,4.362 43.614,4.414 Z M59.088,19 L59.088,6.286 L55.136,6.286 L55.136,19 L59.088,19 Z M57.112,0.748 C55.838,0.748 55.006,1.606 55.032,2.75 C55.006,3.842 55.838,4.726 57.086,4.726 C58.386,4.726 59.218,3.842 59.218,2.75 C59.192,1.606 58.386,0.748 57.112,0.748 Z M61.432,18.376 C62.394,18.896 63.876,19.286 65.54,19.286 C69.18,19.286 71.052,17.518 71.052,15.152 C71.026,13.28 70.012,12.058 67.594,11.226 C66.034,10.68 65.54,10.368 65.54,9.77 C65.54,9.12 66.086,8.73 67.048,8.73 C68.14,8.73 69.232,9.146 69.804,9.458 L70.506,6.728 C69.726,6.338 68.4,6 66.918,6 C63.772,6 61.744,7.794 61.744,10.186 C61.718,11.668 62.732,13.098 65.358,13.982 C66.84,14.476 67.23,14.788 67.23,15.438 C67.23,16.088 66.736,16.504 65.54,16.504 C64.37,16.504 62.862,15.984 62.134,15.542 L61.432,18.376 Z M77.296,0.54 L73.344,0.54 L73.344,19 L77.296,19 L77.296,15.022 L78.31,13.774 L81.378,19 L86.24,19 L81.04,11.434 L85.59,6.286 L80.832,6.286 L78.258,10.108 C77.946,10.602 77.634,11.122 77.348,11.642 L77.296,11.642 L77.296,0.54 Z" id="cx-risk"></path>
                <path d="M149.756,13.124 L140.916,13.124 C140.968,16.218 142.944,17.492 145.232,17.492 C146.87,17.492 147.858,17.206 148.716,16.842 L149.106,18.48 C148.3,18.844 146.922,19.286 144.92,19.286 C141.046,19.286 138.732,16.712 138.732,12.916 C138.732,9.12 140.968,6.13 144.634,6.13 C148.742,6.13 149.834,9.744 149.834,12.058 C149.834,12.526 149.782,12.89 149.756,13.124 Z M140.942,11.486 L147.624,11.486 C147.65,10.03 147.026,7.768 144.452,7.768 C142.138,7.768 141.124,9.9 140.942,11.486 Z M131.5,19 L131.5,10.342 C131.5,8.86 131.474,7.586 131.396,6.416 L133.398,6.416 L133.476,8.886 L133.58,8.886 C134.152,7.196 135.53,6.13 137.064,6.13 C137.324,6.13 137.506,6.156 137.714,6.208 L137.714,8.366 C137.48,8.314 137.246,8.288 136.934,8.288 C135.322,8.288 134.178,9.51 133.866,11.226 C133.814,11.538 133.762,11.902 133.762,12.292 L133.762,19 L131.5,19 Z M122.656,6.13 C126.27,6.13 128.714,8.756 128.714,12.604 C128.714,17.258 125.49,19.286 122.448,19.286 C119.042,19.286 116.416,16.79 116.416,12.812 C116.416,8.6 119.172,6.13 122.656,6.13 Z M122.604,7.846 C119.9,7.846 118.73,10.342 118.73,12.734 C118.73,15.49 120.316,17.57 122.552,17.57 C124.736,17.57 126.374,15.516 126.374,12.682 C126.374,10.55 125.308,7.846 122.604,7.846 Z M114.514,16.816 L114.904,18.532 C114.306,18.844 112.98,19.286 111.29,19.286 C107.494,19.286 105.024,16.686 105.024,12.838 C105.024,8.964 107.676,6.156 111.784,6.156 C113.136,6.156 114.332,6.494 114.956,6.806 L114.436,8.574 C113.89,8.262 113.032,7.976 111.784,7.976 C108.898,7.976 107.338,10.108 107.338,12.734 C107.338,15.646 109.21,17.44 111.706,17.44 C113.006,17.44 113.864,17.102 114.514,16.816 Z M92.254,18.142 L92.826,16.244 C93.84,16.868 95.322,17.388 96.882,17.388 C99.196,17.388 100.548,16.166 100.548,14.398 C100.548,12.76 99.612,11.824 97.246,10.914 C94.386,9.9 92.618,8.418 92.618,5.948 C92.618,3.218 94.88,1.19 98.286,1.19 C100.08,1.19 101.38,1.606 102.16,2.048 L101.536,3.894 C100.964,3.582 99.794,3.062 98.208,3.062 C95.816,3.062 94.906,4.492 94.906,5.688 C94.906,7.326 95.972,8.132 98.39,9.068 C101.354,10.212 102.862,11.642 102.862,14.216 C102.862,16.92 100.86,19.286 96.726,19.286 C95.036,19.286 93.19,18.766 92.254,18.142 Z" id="Score" fill-opacity="0.75"></path>
            </g>
        </g>
    </g>
</svg>