<?xml version="1.0" encoding="UTF-8"?>
<svg width="127px" height="31px" viewBox="0 0 127 31" version="1.1" xmlns="http://www.w3.org/2000/svg" xmlns:xlink="http://www.w3.org/1999/xlink">
    <!-- Generator: Sketch 42 (36781) - http://www.bohemiancoding.com/sketch -->
    <title>iac-logo</title>
    <desc>Created with Sketch.</desc>
    <defs>
        <path d="M15.5,31 C24.0604136,31 31,24.0604136 31,15.5 C31,6.93958638 24.0604136,0 15.5,0 C6.93958637,0 0,6.93958638 0,15.5 C0,24.0604136 6.93958637,31 15.5,31 L15.5,31 Z M15.5,29.0625 C22.9903619,29.0625 29.0625,22.9903619 29.0625,15.5 C29.0625,8.00963808 22.9903619,1.9375 15.5,1.9375 C8.00963808,1.9375 1.9375,8.00963808 1.9375,15.5 C1.9375,22.9903619 8.00963808,29.0625 15.5,29.0625 L15.5,29.0625 Z" id="path-1"></path>
        <path d="M11.5,23 C17.8512746,23 23,17.8512746 23,11.5 C23,5.14872538 17.8512746,0 11.5,0 C5.14872539,0 0,5.14872538 0,11.5 C0,17.8512746 5.14872539,23 11.5,23 L11.5,23 Z M11.5,21.0833333 C16.7927288,21.0833333 21.0833333,16.7927289 21.0833333,11.5 C21.0833333,6.20727115 16.7927288,1.91666667 11.5,1.91666667 C6.20727115,1.91666667 1.91666667,6.20727115 1.91666667,11.5 C1.91666667,16.7927289 6.20727115,21.0833333 11.5,21.0833333 L11.5,21.0833333 Z" id="path-3"></path>
        <path d="M7.5,15 C11.6421356,15 15,11.6421356 15,7.50000002 C15,3.35786438 11.6421356,0 7.5,0 C3.35786438,0 0,3.35786438 0,7.50000002 C0,11.6421356 3.35786438,15 7.5,15 L7.5,15 Z M7.49999998,13.125 C10.6066017,13.125 13.125,10.6066017 13.125,7.50000001 C13.125,4.39339827 10.6066017,1.875 7.49999998,1.875 C4.39339828,1.875 1.875,4.39339827 1.875,7.50000001 C1.875,10.6066017 4.39339828,13.125 7.49999998,13.125 L7.49999998,13.125 Z" id="path-5"></path>
    </defs>
    <g id="Symbols" stroke="none" stroke-width="1" fill="none" fill-rule="evenodd" opacity="0.5">
        <g id="Footer/Logo/Product/IAC" transform="translate(0.000000, -10.000000)">
            <g id="iac-logo" transform="translate(0.000000, 10.000000)">
                <g id="circle-4">
                    <mask id="mask-2" fill="white">
                        <use xlink:href="#path-1"></use>
                    </mask>
                    <use id="a" fill="#000000" xlink:href="#path-1"></use>
                    <polygon id="Shape" fill="#000000" mask="url(#mask-2)" points="15.5 15.5 5.79968929 -1.55 -1.55 -1.55 -1.55 34.4875 4.5960321 34.4875"></polygon>
                </g>
                <g id="Group-2" transform="translate(4.000000, 4.000000)">
                    <mask id="mask-4" fill="white">
                        <use xlink:href="#path-3"></use>
                    </mask>
                    <use id="Mask" fill="#000000" xlink:href="#path-3"></use>
                    <polygon id="Rectangle-path" fill="#000000" mask="url(#mask-4)" points="0 0 23 0 23 23 11.5 23 11.5 11.5 0 11.4586"></polygon>
                </g>
                <g id="circle-2" transform="translate(8.000000, 8.000000)">
                    <mask id="mask-6" fill="white">
                        <use xlink:href="#path-5"></use>
                    </mask>
                    <use id="e" fill="#000000" xlink:href="#path-5"></use>
                    <rect id="Rectangle" fill="#000000" mask="url(#mask-6)" x="0" y="8" width="15" height="8"></rect>
                </g>
                <circle id="circle-1" fill="#000000" cx="15.5" cy="15.5" r="1.5"></circle>
                <path d="M40.3674513,21.4983888 L41.0669689,23.9140709 L43.2731392,23.9140709 L40.4616173,14.5026853 L37.7711654,14.5026853 L35,23.9140709 L37.1254569,23.9140709 L37.7711654,21.4983888 L40.3674513,21.4983888 L40.3674513,21.4983888 Z M38.0671151,19.9065521 L38.6052055,17.9097744 C38.7531802,17.3651987 38.8877028,16.6530612 39.0222255,16.094522 L39.04913,16.094522 C39.1836526,16.6530612 39.3450798,17.3512352 39.5065069,17.9097744 L40.0715015,19.9065521 L38.0671151,19.9065521 L38.0671151,19.9065521 Z M44.3358677,23.9140709 L46.3806111,23.9140709 L46.3806111,19.9763695 C46.3806111,19.7808808 46.4075157,19.5714286 46.4613247,19.4457573 C46.5958473,19.0547798 46.9321537,18.6498389 47.4971487,18.6498389 C48.2370229,18.6498389 48.5329727,19.2502685 48.5329727,20.1299678 L48.5329727,23.9140709 L50.5777162,23.9140709 L50.5777162,19.8646616 C50.5777162,17.8539205 49.5687967,16.9323308 48.2235709,16.9323308 C47.1339378,16.9323308 46.4613247,17.5886144 46.1922795,18.0214823 L46.1519229,18.0214823 L46.0577568,17.0859291 L44.2820586,17.0859291 C44.3089631,17.6863587 44.3358677,18.4124597 44.3358677,19.264232 L44.3358677,23.9140709 L44.3358677,23.9140709 Z M57.8015792,23.9140709 C57.7343177,23.5370569 57.7074132,22.9087003 57.7074132,22.2524167 L57.7074132,19.8786251 C57.7074132,18.2728249 57.0078959,16.9323308 54.8151778,16.9323308 C53.6179266,16.9323308 52.7166253,17.2674544 52.2592484,17.5327605 L52.6359117,18.9011815 C53.0663841,18.6219119 53.7793538,18.3845327 54.4519665,18.3845327 C55.460886,18.3845327 55.6492176,18.9011815 55.6492176,19.264232 L55.6492176,19.3619764 C53.3219769,19.3480129 51.7884194,20.1997852 51.7884194,21.9731472 C51.7884194,23.0622986 52.5821026,24.0676692 53.9138764,24.0676692 C54.6941072,24.0676692 55.3667203,23.7744361 55.7971927,23.2298604 L55.8375493,23.2298604 L55.9586195,23.9140709 L57.8015792,23.9140709 L57.8015792,23.9140709 Z M55.7164792,21.4285715 C55.7164792,21.5542427 55.7030267,21.6799141 55.6761222,21.7916219 C55.5415996,22.2244898 55.1245796,22.5735768 54.6133937,22.5735768 C54.1560171,22.5735768 53.8062583,22.3082707 53.8062583,21.7636949 C53.8062583,20.9398496 54.6402982,20.6745435 55.7164792,20.688507 L55.7164792,21.4285715 L55.7164792,21.4285715 Z M59.3216843,23.9140709 L61.3664277,23.9140709 L61.3664277,14 L59.3216843,14 L59.3216843,23.9140709 L59.3216843,23.9140709 Z M62.2811815,17.0859291 L64.6891359,23.3276047 C64.7698495,23.4951665 64.7833015,23.6068744 64.7833015,23.6766917 C64.7833015,23.7744361 64.7429449,23.886144 64.6756834,23.9838883 C64.4738997,24.3329753 64.1375933,24.6680988 63.8281911,24.8356606 C63.5187893,25.0311493 63.195935,25.1568206 62.9403422,25.1987111 L63.3708146,27 C63.8820002,26.9301826 64.6353268,26.7067669 65.3482966,26.0644469 C66.0881708,25.3802363 66.7204269,24.2910849 67.6620849,21.5821697 L69.1956428,17.0859291 L67.0029242,17.0859291 L66.1957889,20.4371644 C66.1016228,20.8281418 65.9940048,21.3447905 65.8998391,21.707841 L65.8594825,21.707841 C65.7787689,21.3447905 65.6442463,20.8421053 65.5366282,20.4371644 L64.5546133,17.0859291 L62.2811815,17.0859291 L62.2811815,17.0859291 Z M70.3390845,15.6058002 L70.3390845,17.0859291 L69.4646876,17.0859291 L69.4646876,18.6498389 L70.3390845,18.6498389 L70.3390845,21.4425349 C70.3390845,22.4060151 70.5274161,23.0622986 70.9040795,23.4672395 C71.2269338,23.8163265 71.7784763,24.0537057 72.437637,24.0537057 C73.0160841,24.0537057 73.5003655,23.9838883 73.7694107,23.8721805 L73.7559583,22.2663802 C73.6079836,22.2943072 73.4061999,22.3222342 73.1506067,22.3222342 C72.531803,22.3222342 72.3434713,21.9452202 72.3434713,21.1213749 L72.3434713,18.6498389 L73.8097673,18.6498389 L73.8097673,17.0859291 L72.3434713,17.0859291 L72.3434713,15.1310419 L70.3390845,15.6058002 L70.3390845,15.6058002 Z M77.0383095,23.9140709 L77.0383095,17.0859291 L74.9935664,17.0859291 L74.9935664,23.9140709 L77.0383095,23.9140709 L77.0383095,23.9140709 Z M76.0159379,14.1117078 C75.3567773,14.1117078 74.9263049,14.5725027 74.9397574,15.1868958 C74.9263049,15.773362 75.3567773,16.2481203 76.0024859,16.2481203 C76.6750986,16.2481203 77.105571,15.773362 77.105571,15.1868958 C77.0921185,14.5725027 76.6750986,14.1117078 76.0159379,14.1117078 L76.0159379,14.1117078 L76.0159379,14.1117078 Z M83.3743236,22.1825994 C83.0649218,22.3082707 82.6882584,22.3920516 82.203977,22.3920516 C81.20851,22.3920516 80.4013743,21.735768 80.4013743,20.4790548 C80.3879222,19.3619764 81.0874398,18.566058 82.1636204,18.566058 C82.7017109,18.566058 83.0649218,18.6638024 83.3070625,18.7755102 L83.6299168,17.1976369 C83.1994444,17.0300752 82.6075449,16.9323308 82.0694544,16.9323308 C79.6211434,16.9323308 78.3028221,18.566058 78.3028221,20.5628357 C78.3028221,22.7132116 79.6615,24.0537057 81.7869571,24.0537057 C82.5671883,24.0537057 83.2532535,23.9140709 83.6164643,23.7465091 L83.3743236,22.1825994 L83.3743236,22.1825994 Z M84.369791,23.5789474 C84.8675245,23.858217 85.6343033,24.0537057 86.4952477,24.0537057 C88.378564,24.0537057 89.3471269,23.1181525 89.3471269,21.8474758 C89.3336744,20.8421053 88.8090364,20.1858217 87.5579762,19.7389904 C86.7508408,19.4457573 86.4952477,19.2781955 86.4952477,18.9570355 C86.4952477,18.6079484 86.7777454,18.3984962 87.2754789,18.3984962 C87.8404739,18.3984962 88.4054685,18.6219119 88.7014183,18.7894737 L89.0646292,17.3233083 C88.6610617,17.1138561 87.9749961,16.9323308 87.2082174,16.9323308 C85.5804942,16.9323308 84.5312178,17.8958109 84.5312178,19.1664876 C84.5177657,19.9763695 85.0424037,20.7443609 86.401082,21.2191192 C87.1678608,21.4844254 87.3696445,21.6519871 87.3696445,22.0010741 C87.3696445,22.3501611 87.1140517,22.5735768 86.4952477,22.5735768 C85.8898961,22.5735768 85.1096652,22.2943072 84.7330019,22.056928 L84.369791,23.5789474 L84.369791,23.5789474 Z M99.7188185,21.9871106 C99.3152506,22.1546724 98.6291854,22.2943072 98.0103814,22.2943072 C96.1808745,22.2943072 95.1046935,21.1074114 95.1046935,19.2223416 C95.1046935,17.1278196 96.3692058,16.1084855 97.9969293,16.1084855 C98.7233515,16.1084855 99.3017986,16.2760473 99.7188185,16.4575725 L100.135838,14.7679914 C99.7726275,14.5725027 98.9654918,14.349087 97.9027637,14.349087 C95.1585026,14.349087 92.952332,16.1364125 92.952332,19.3480129 C92.952332,22.0290011 94.5666034,24.0537057 97.7009796,24.0537057 C98.804065,24.0537057 99.6515574,23.8442535 100.02822,23.6487648 L99.7188185,21.9871106 L99.7188185,21.9871106 Z M101.265828,23.9140709 L103.310572,23.9140709 L103.310572,14 L101.265828,14 L101.265828,23.9140709 L101.265828,23.9140709 Z M108.099576,16.9323308 C105.987571,16.9323308 104.588536,18.3426423 104.588536,20.5488722 C104.588536,22.755102 106.068285,24.0676692 107.991958,24.0676692 C109.754204,24.0676692 111.46264,22.9226638 111.46264,20.4232009 C111.46264,18.3705693 110.117415,16.9323308 108.099576,16.9323308 L108.099576,16.9323308 L108.099576,16.9323308 Z M108.045767,18.4403867 C108.973973,18.4403867 109.350636,19.4736842 109.350636,20.4930183 C109.350636,21.7218045 108.83945,22.5456498 108.045767,22.5456498 C107.17137,22.5456498 106.700541,21.6659506 106.700541,20.4930183 C106.700541,19.4876477 107.063752,18.4403867 108.045767,18.4403867 L108.045767,18.4403867 L108.045767,18.4403867 Z M118.928645,17.0859291 L116.870449,17.0859291 L116.870449,21.1493018 C116.870449,21.3168636 116.856997,21.4844254 116.803188,21.6100967 C116.668665,21.9452202 116.345811,22.3501611 115.780816,22.3501611 C115.067846,22.3501611 114.758444,21.7497315 114.758444,20.7583244 L114.758444,17.0859291 L112.700249,17.0859291 L112.700249,21.0934479 C112.700249,23.2019334 113.682264,24.0676692 115.014037,24.0676692 C116.197836,24.0676692 116.81664,23.3694952 117.072233,22.9505908 L117.112589,22.9505908 L117.206755,23.9140709 L118.982454,23.9140709 C118.955549,23.3415682 118.928645,22.6154673 118.928645,21.7218045 L118.928645,17.0859291 L118.928645,17.0859291 Z M124.901447,14 L124.901447,17.7003222 L124.874543,17.7003222 C124.578593,17.2255639 123.946337,16.9323308 123.139202,16.9323308 C121.565287,16.9323308 120.179704,18.2588615 120.193157,20.5628357 C120.193157,22.6852847 121.444217,24.0676692 123.004679,24.0676692 C123.852171,24.0676692 124.645855,23.6766917 125.062875,22.9087003 L125.089779,22.9087003 L125.183945,23.9140709 L127,23.9140709 C126.973095,23.453276 126.946191,22.6433942 126.946191,21.8754028 L126.946191,14 L124.901447,14 L124.901447,14 Z M124.901447,20.8700322 C124.901447,21.0515575 124.887995,21.2051558 124.847638,21.358754 C124.726568,21.9591837 124.255739,22.3780881 123.66384,22.3780881 C122.816347,22.3780881 122.264805,21.6519871 122.264805,20.4930183 C122.264805,19.4178303 122.749086,18.5520945 123.677292,18.5520945 C124.309548,18.5520945 124.753473,19.0268529 124.874543,19.5993555 C124.887995,19.7110634 124.901447,19.8646616 124.901447,19.9763695 L124.901447,20.8700322 L124.901447,20.8700322 Z" id="Shape" fill="#000000"></path>
                <path d="M36,6.07913666 L36,10.9280576 L37.135514,10.9280576 L37.135514,6.07913666 L36,6.07913666 L36,6.07913666 Z M39.1542055,10.9280576 L39.1542055,9.46762589 C39.1542055,8.67625898 39.1393624,7.99280577 39.1096755,7.35251797 L39.1319406,7.34532372 C39.3768554,7.91366907 39.7034085,8.53956833 40.000275,9.05755397 L41.0689938,10.9280576 L42.2564594,10.9280576 L42.2564594,6.07913666 L41.2174272,6.07913666 L41.2174272,7.49640287 C41.2174272,8.22302158 41.239692,8.87769783 41.3139086,9.51798563 L41.2916438,9.51798563 C41.0689938,8.97122303 40.7721276,8.36690647 40.4752611,7.85611512 L39.4362285,6.07913666 L38.1151731,6.07913666 L38.1151731,10.9280576 L39.1542055,10.9280576 L39.1542055,10.9280576 Z M43.0431555,10.705036 C43.3251786,10.8561151 43.8892247,11 44.4606926,11 C45.8337,11 46.4793843,10.3093525 46.4793843,9.49640288 C46.4793843,8.81294963 46.0637713,8.36690647 45.1805938,8.05035972 C44.5349095,7.81294962 44.252886,7.67625897 44.252886,7.36690647 C44.252886,7.11510791 44.4903795,6.89928056 44.9802091,6.89928056 C45.4700386,6.89928056 45.8262782,7.03597121 46.026663,7.12949641 L46.2789995,6.24460431 C45.982133,6.1151079 45.56652,6 45.0024739,6 C43.8224299,6 43.1099503,6.63309351 43.1099503,7.46043166 C43.1099503,8.16546762 43.6517317,8.61151078 44.4829577,8.89208633 C45.0841121,9.10071943 45.3216052,9.27338129 45.3216052,9.57553958 C45.3216052,9.89208634 45.0470039,10.1007194 44.5274877,10.1007194 C44.0450799,10.1007194 43.5775151,9.94964029 43.2732269,9.79856114 L43.0431555,10.705036 L43.0431555,10.705036 Z M47.2438152,6.07913666 L47.2438152,10.9280576 L48.3793292,10.9280576 L48.3793292,6.07913666 L47.2438152,6.07913666 L47.2438152,6.07913666 Z M53.5373832,8.15107913 L51.6745466,8.15107913 L51.6745466,9.00719423 L52.4463993,9.00719423 L52.4463993,10.0215827 C52.3573393,10.0647482 52.1495327,10.0935252 51.8897745,10.0935252 C50.9620671,10.0935252 50.3163827,9.50359713 50.3163827,8.50359712 C50.3163827,7.45323741 51.0288623,6.93525177 51.9714128,6.93525177 C52.5206158,6.93525177 52.8620123,7.02877697 53.1366136,7.14388487 L53.3741067,6.26618705 C53.1291919,6.15107911 52.6319406,6.02877696 51.9862562,6.02877696 C50.3460692,6.02877696 49.1363387,6.94964027 49.128917,8.56115108 C49.1214953,9.27338129 49.3738318,9.90647483 49.8339748,10.323741 C50.2941179,10.7553957 50.9546453,10.9784173 51.8675097,10.9784173 C52.5280375,10.9784173 53.1885654,10.8201439 53.5373832,10.705036 L53.5373832,8.15107913 L53.5373832,8.15107913 Z M54.4205606,6.07913666 L54.4205606,10.9280576 L55.556075,10.9280576 L55.556075,8.89928058 L57.4189116,8.89928058 L57.4189116,10.9280576 L58.5470038,10.9280576 L58.5470038,6.07913666 L57.4189116,6.07913666 L57.4189116,7.94244603 L55.556075,7.94244603 L55.556075,6.07913666 L54.4205606,6.07913666 L54.4205606,6.07913666 Z M60.4989008,10.9280576 L61.6344147,10.9280576 L61.6344147,7.00000001 L63,7.00000001 L63,6.07913666 L59.1555799,6.07913666 L59.1555799,7.00000001 L60.4989008,7.00000001 L60.4989008,10.9280576 L60.4989008,10.9280576 Z" id="Shape" fill="#000000"></path>
            </g>
        </g>
    </g>
</svg>