<?xml version="1.0" encoding="UTF-8"?>
<svg width="106px" height="32px" viewBox="0 0 106 32" version="1.1" xmlns="http://www.w3.org/2000/svg" xmlns:xlink="http://www.w3.org/1999/xlink">
    <!-- Generator: Sketch 42 (36781) - http://www.bohemiancoding.com/sketch -->
    <title>insight-logo</title>
    <desc>Created with Sketch.</desc>
    <defs></defs>
    <g id="Symbols" stroke="none" stroke-width="1" fill="none" fill-rule="evenodd">
        <g id="Footer/Logo/Brand/Insight" transform="translate(-44.000000, -9.000000)">
            <g id="insight-logo" transform="translate(44.000000, 9.000000)">
                <polygon id="Fill-1" fill="#79C9F0" points="25.3661013 18.6435232 26.6786507 18.0201529 28 17.3830822 27.8643902 17.1276351 27.7335189 16.8792593 27.4571095 16.3931144 27.3111203 16.1515888 27.1691926 15.9184602 27.0191418 15.6842268 26.869768 15.4572855 26.5552255 15.0089274 26.3909593 14.7890573 26.2296266 14.5773633 25.8889098 14.156848 25.7144899 13.9524462 25.5421007 13.7551156 25.3584295 13.5529235 25.1754353 13.3604543 24.9883795 13.1668803 24.8020007 12.9799355 24.6072731 12.7938746 24.41232 12.6151058 24.2144335 12.4354532 24.0154188 12.2639767 23.6004663 11.9241172 23.3876876 11.7599328 23.1782934 11.6025987 22.7403257 11.2914659 22.5160393 11.1418659 22.2913016 11 22.2466248 11.2627392 22.1978865 11.5263623 22.145538 11.785124 22.0891279 12.0480841 22.0555075 12.172935 22.0254973 12.3002166 21.9623181 12.5561055 21.9253131 12.6800725 21.9065849 12.7430503 21.8910158 12.8086799 21.8197134 13.0647899 21.7380317 13.3091881 21.6552217 13.5577849 21.5656425 13.8028462 21.4758377 14.0479074 21.379038 14.2845715 21.2772743 14.5263181 21.1725772 14.7598886 21.116844 14.8770053 21.0642699 14.9969947 20.9482908 15.224157 20.8289271 15.4541919 20.7050506 15.6811332 20.5782408 15.9105051 20.4433079 16.1299333 20.3092776 16.352676 20.1671242 16.5723251 20.0245196 16.7910903 19.8715355 17.0036682 19.7176488 17.2158041 19.5606032 17.4237415 19.3999474 17.6349936 19.3548193 17.6825032 19.3139784 17.7357582 19.2316197 17.8371857 19.0596818 18.0420294 18.9694257 18.1397004 18.8836824 18.2422327 18.7079087 18.4466346 18.6596217 18.4903876 18.6144936 18.5387811 18.5251401 18.6298228 18.3450792 18.8079286 18.252341 18.8890264 18.1618593 18.9729969 18.0679929 19.0532108 17.9784137 19.1371812 17.8813884 19.209882 17.8324245 19.2472268 17.7886503 19.2876652 17.600692 19.4308569 17.5032154 19.4947187 17.4095747 19.5610112 17.3132263 19.6237681 17.2191343 19.6889557 17.1667858 19.7156936 17.1184987 19.7441994 17.0205709 19.8014319 16.9688993 19.8279489 16.9199353 19.8571176 16.8222331 19.9121404 16.620962 20.0069386 16.5191982 20.0509126 16.4223986 20.0979803 16.2127788 20.1751005 16.1080817 20.2108985 16.0564101 20.2296814 16.0067692 20.2517788 15.7976007 20.3138728 15.5884322 20.3730941 15.476289 20.3907721 15.3668534 20.4135325 15.1511414 20.452866 15.0383212 20.4636938 14.9297883 20.479383 14.8176451 20.488222 14.7616863 20.4928625 14.7093377 20.5010386 14.6493174 20.5010386 14.593133 20.5034693 14.4809898 20.5081098 14.256929 20.5112034 14.1964574 20.5081098 14.1409499 20.5081098 14.0285811 20.5034693 13.9123764 20.497061 13.8004588 20.4928625 13.6806438 20.479383 13.6210748 20.4716489 13.5646647 20.4670084 13.4448498 20.4488885 13.328645 20.4349671 13.089692 20.3907721 12.8500621 20.3432625 12.6027603 20.2805056 12.5400323 20.2632695 12.4802377 20.2484642 12.3601971 20.2139921 12.1135723 20.1386397 11.8664962 20.0575419 11.6160355 19.9585451 11.3730209 19.8522562 11.1297808 19.7397799 10.8975969 19.6273037 10.6622541 19.4991382 10.4372908 19.3663323 10.2130044 19.2251293 10 19.0819375 10.1800609 19.2140805 10.3592193 19.342246 10.5426648 19.4662129 10.7290437 19.5875282 10.9163251 19.7000044 11.1033808 19.8100499 11.4880975 20.0151147 11.873491 20.197419 12.2701666 20.3658019 12.6711293 20.5112034 13.0824715 20.6422416 13.2839683 20.6983692 13.4931368 20.7494144 13.9164379 20.8371415 14.1256064 20.8718345 14.3426723 20.9063066 14.7808657 20.9582357 15.2179309 20.9871835 15.6667293 21 16.1200406 20.9938127 16.5835057 20.9717152 17.1516679 20.920449 17.4362002 20.8881867 17.7238915 20.858797 17.8626603 20.8371415 18.0048137 20.8188005 18.289346 20.7814558 18.5693656 20.7377027 18.8538979 20.6943917 19.1309842 20.6422416 19.4112294 20.5918593 19.9726223 20.479383 20.5261179 20.3545322 21.0791621 20.2188536 21.3483509 20.1417333 21.4835095 20.1012949 21.6222782 20.0666018 22.1685533 19.9010916 22.7069309 19.7225439 23.2453086 19.5320635 23.7762401 19.3274407 24.0420443 19.218942 24.3107818 19.1119901 24.5727502 18.997967 24.7042984 18.9391877 24.8390057 18.8854908 25.1005227 18.7646175 25.1639276 18.7316922 25.2311684 18.7034074"></polygon>
                <polygon id="Fill-2" fill="#0080B2" points="12.8627585 0 12.6398546 0.188068675 12.4292206 0.383178569 12.0149966 0.777486806 11.6155419 1.17951767 11.2388094 1.59676665 10.8732106 2.01333422 10.5273801 2.44489278 10.1990457 2.88462823 10.0413542 3.10631305 9.89002499 3.33594763 9.59327426 3.78976552 9.44967053 4.01871869 9.31401954 4.25630303 9.17859577 4.48798183 9.05044308 4.72897321 8.80936151 5.21368161 8.68870711 5.45376445 8.57964099 5.70156991 8.36877982 6.20126929 8.17268803 6.70891843 8 7.23110428 8.27062031 7.19612533 8.54578505 7.17409313 8.8168598 7.15160665 9.09225176 7.14070412 9.63485571 7.12503173 10.1765508 7.13184581 10.4401272 7.14070412 10.7075665 7.15524083 10.972279 7.17409313 11.2388094 7.20089518 11.7666439 7.26426615 12.2935696 7.350805 12.549875 7.39532367 12.8093615 7.45210769 13.0661213 7.50843744 13.325835 7.57544258 13.8375369 7.714677 14.0908884 7.79349322 14.3462849 7.88048634 14.595092 7.96634378 14.8475347 8.06015098 15.096569 8.15827377 15.3483299 8.26343777 15.8457169 8.48126127 16.3426494 8.72520542 16.5721427 8.84490614 16.7948194 8.97301089 17.0090888 9.1008885 17.2169961 9.23921438 17.4121791 9.37844879 17.6041809 9.52540584 17.7895933 9.6762242 17.9661441 9.83317523 18.1283799 9.98762776 18.2860713 10.1527557 18.4335378 10.3181108 18.5805499 10.4939141 18.7121109 10.6717616 18.8400364 10.8555147 18.9572824 11.0433563 19.0738469 11.238239 19.1720064 11.4299419 19.2653942 11.6332287 19.3524199 11.8356069 19.4310384 12.0495691 19.4955692 12.2603514 19.5598728 12.4815819 19.6121336 12.7030396 19.661895 12.9358541 19.6948421 13.1657158 19.7248353 13.4057987 19.7443763 13.6456544 19.7598273 13.8977754 19.7634628 14.1462623 19.7598273 14.4047431 19.7477846 14.6641325 19.7330152 14.9337431 19.6993865 15.1972209 19.661895 15.4602445 19.6348557 15.5881221 19.6121336 15.7189525 19.5598728 15.9815218 19.4919337 16.2384127 19.420359 16.492578 19.3976369 16.5534505 19.3862758 16.5836596 19.3785503 16.6168214 19.3410589 16.7444719 19.2549421 17 19.3374233 16.7824036 19.4164963 16.5718485 19.4919337 16.3612933 19.5635083 16.1511925 19.6275846 15.9338232 19.6877982 15.723041 19.7932288 15.3021578 19.834583 15.0843343 19.8729834 14.8746877 19.9059305 14.656637 19.9366053 14.4454005 19.958873 14.2282584 19.9777323 14.0179304 20 13.5897789 20 13.3721825 19.9970461 13.1541319 19.974324 12.7259804 19.9550102 12.5081569 19.9322881 12.2907876 19.9025222 12.0725099 19.8729834 11.8578663 19.831402 11.640497 19.7857305 11.4229007 19.6802999 10.9874808 19.6200863 10.7655688 19.55601 10.5470639 19.4126335 10.1118712 19.2090434 9.5660632 18.9988639 9.02956777 18.7764145 8.4996593 18.542604 7.97838199 18.2940241 7.455969 18.0379459 6.94831986 17.7670984 6.44157926 17.4878437 5.94937538 17.1906385 5.4578529 16.8852534 4.97337163 16.5689616 4.49570446 16.241536 4.02621418 15.898205 3.55649676 15.5480573 3.1022246 15.182913 2.65158661 14.8100432 2.21253257 14.3281072 1.65673058 14.0829357 1.37871601 13.8416269 1.10433563"></polygon>
                <polygon id="Fill-3" fill="#79C9F0" points="12.3232627 11 12.094586 11 11.870424 11.0057404 11.4137477 11.0364295 10.8376538 11.0797033 10.2647203 11.1421853 9.69607585 11.2150443 9.13488092 11.3064491 8.56962263 11.4051399 8.01203958 11.521935 7.45829414 11.6453536 6.91199819 11.7882013 6.36141315 11.9339191 5.81895481 12.1021571 5.27649648 12.2774601 4.74148764 12.471309 4.20602731 12.6720023 3.67440461 12.8912415 3.14729674 13.117325 2.62696113 13.3619544 1.31020731 13.986775 0 14.6288168 0.257797509 15.1251408 0.531396968 15.610867 0.670228376 15.847769 0.815606306 16.0855541 1.11855224 16.545007 1.42985063 16.990992 1.7549193 17.4219637 1.91993679 17.6295012 2.09217804 17.8368181 2.4472704 18.247036 2.62334926 18.4408849 2.80665187 18.6351754 2.99018022 18.8250502 3.18093231 19.0138211 3.56672561 19.3785574 3.76470146 19.5527565 3.97057828 19.729605 4.17239174 19.8971806 4.38188043 20.0654185 4.59136913 20.2252666 4.80875879 20.3884265 5.2460213 20.6999536 5.4710862 20.8500872 5.7031491 21 5.73971933 20.7308635 5.7893826 20.4672466 5.89796456 19.9446493 6.02121976 19.4293379 6.16750066 18.9294814 6.24176982 18.6773453 6.32822905 18.4327159 6.50791979 17.9467688 6.70634712 17.4696531 6.81109146 17.2327512 6.9232853 17.002252 7.15512247 16.5383834 7.27521728 16.3083258 7.40569623 16.0855541 7.67545807 15.6431016 7.96373076 15.2090389 8.26690244 14.7820414 8.42334174 14.5707504 8.58790775 14.3663038 8.92855262 13.9616055 9.28838557 13.5626476 9.46423868 13.3734352 9.64370368 13.1937165 9.82339441 13.0261409 10.0100831 12.8687214 10.1938372 12.7157177 10.3848151 12.5735323 10.5753414 12.4377498 10.7699311 12.3180845 10.9649723 12.1970945 11.1627225 12.0917802 11.3613755 11.9928687 11.5677038 11.9052171 11.7695173 11.8215398 11.9794575 11.7489016 12.1880432 11.6864195 12.4054329 11.6349767 12.6192107 11.5877288 12.8354716 11.5473252 13.0528613 11.5181816 13.2774747 11.4998565 13.5020881 11.4885965 13.7305391 11.4859471 13.9585387 11.4925706 14.1942135 11.5113373 14.4258249 11.5327534 14.6619512 11.5654295 14.8980774 11.6058331 15.1405245 11.6610293 15.3841002 11.7188749 15.6312879 11.7882013 15.878024 11.8650343 16.1324354 11.9526858 16.379623 12.0436491 16.6231988 12.1500673 16.8627112 12.2558232 17.0981602 12.3765924 17.3263855 12.4960369 17.555288 12.6315987 17.7794499 12.7746672 18 12.9239176 17.6329433 12.6572097 17.4464803 12.5333495 17.2625005 12.4167752 17.0721999 12.2999801 16.8850596 12.1895878 16.6938561 12.0831696 16.5078445 11.9891153 16.3082885 11.8910869 16.114376 11.7994613 15.9161744 11.7118098 15.7209075 11.6349767 15.5193198 11.5543903 15.3211182 11.4859471 15.1150156 11.4194909 14.9132022 11.3616453 14.703262 11.299384 14.4976109 11.248162 14.2838331 11.2006933 14.0741187 11.1600689 13.856729 11.1201069 13.6440799 11.0916256 13.4273675 11.0615989 13.2135897 11.0441569 12.9896535 11.0211953 12.7684262 11.0103769 12.5442643 11"></polygon>
                <polygon id="Fill-4" fill="#0080B2" points="13.4366458 16.5526909 13.5476376 16.6547397 13.6697579 16.7476718 13.7912925 16.8206058 13.9219055 16.8885403 14.0533971 16.9320655 14.1986529 16.9714734 14.34508 16.9908832 14.5 17 14.6452558 16.9908832 14.7910972 16.9714734 14.8590394 16.9517694 14.9316673 16.9320655 15.0684303 16.8885403 15.193772 16.8206058 15.3208708 16.7476718 15.4359625 16.6547397 15.5533971 16.5526909 15.6544319 16.4362317 15.7478524 16.3194785 15.8201874 16.1912558 15.8890082 16.066268 15.9326435 15.930399 15.951679 15.857759 15.9704217 15.7889423 15.9897501 15.6439565 16 15.4972062 15.9897501 15.341045 15.9704217 15.1942947 15.9326435 15.0501912 15.8890082 14.9184394 15.8201874 14.7875698 15.7478524 14.6652289 15.6544319 14.5437702 15.5533971 14.4364278 15.4359625 14.3293795 15.3208708 14.2432114 15.193772 14.1643956 15.0684303 14.1067542 14.9316673 14.0579355 14.7910972 14.0244094 14.6452558 14.003235 14.5 14 14.34508 14.003235 14.1986529 14.0244094 14.0533971 14.0579355 13.9219055 14.1067542 13.7912925 14.1643956 13.6697579 14.2432114 13.5476376 14.3293795 13.4366458 14.4364278 13.329754 14.5437702 13.2421906 14.6652289 13.1645841 14.7875698 13.1060133 14.9184394 13.0568137 15.0501912 13.0234283 15.1942947 13.0043928 15.341045 13 15.4972062 13.0043928 15.6439565 13.0234283 15.7889423 13.0568137 15.930399 13.1060133 16.066268 13.1645841 16.1912558 13.2421906 16.3194785 13.329754 16.4362317"></polygon>
                <polygon id="Fill-5" fill="#0080B2" points="9.58691087 15.4202018 9.440694 15.8410849 9.31218663 16.2658294 9.2106976 16.6944352 9.12419352 17.1184982 9.06470777 17.5459683 9.02270448 17.9745741 9.00408681 18.4070412 9 18.8349656 9.02270448 19.2669784 9.06470777 19.7026254 9.12828032 20.1378182 9.20706488 20.5734652 9.31627344 21.0097936 9.440694 21.4452134 9.59077063 21.8885831 9.78693735 22.4296212 9.88865343 22.6958247 9.9974079 22.9658895 10.1023026 23.2295945 10.215598 23.4964794 10.4526328 24.0213909 10.6980682 24.5365355 10.9571264 25.0469103 11.2243581 25.5497896 11.3633096 25.7982764 11.5106616 26.0494889 11.8005979 26.5385129 11.9509016 26.7781415 12.1089248 27.0223128 12.2628611 27.2608057 12.4254252 27.4992986 12.5866271 27.7323402 12.7564566 27.9708331 12.9219723 28.1981963 13.0949804 28.4310108 13.4489433 28.8898256 13.8138043 29.3406908 14.1938774 29.7886031 15.1572285 30.8911217 15.6431045 31.4446523 16.1364729 32 16.350122 31.804663 16.5615008 31.6093259 16.6107695 31.5566304 16.6632168 31.5080232 16.7685656 31.4105819 16.9758576 31.215472 17.0737139 31.1089452 17.1232097 31.0576124 17.1745218 31.0074153 17.3709156 30.8061728 17.4649121 30.7003273 17.5634496 30.597889 17.7541672 30.3961921 17.935349 30.1822299 18.1156226 29.9719019 18.2895389 29.7574855 18.4625471 29.5435233 18.6280627 29.3220656 18.7901727 29.1026521 18.9479689 28.8830116 19.105538 28.6601911 19.2531171 28.4276037 19.2867198 28.3676398 19.3241822 28.3110829 19.399561 28.1981963 19.5394207 27.9665175 19.6066259 27.8497695 19.678145 27.73711 19.8105122 27.4963458 19.9374302 27.2608057 20.0613967 27.0202686 20.1220177 26.8996593 20.1522146 26.8383326 20.1860443 26.7813214 20.2988856 26.5346516 20.4119539 26.2904803 20.5211625 26.0417663 20.6267383 25.7950965 20.7245946 25.5382056 20.7702306 25.4114637 20.7920269 25.3476385 20.8183641 25.2874474 20.9085009 25.0276037 21 24.7734384 20.7209619 24.7981963 20.4457836 24.8215913 20.1715134 24.8408979 19.9004219 24.8554346 19.3543791 24.871107 19.0835147 24.871107 18.8160559 24.8665642 18.5449643 24.8554346 18.2786408 24.8408979 17.7473559 24.7963792 17.4837568 24.7652615 17.2201578 24.7314183 16.7009063 24.6487407 16.177795 24.5428953 15.9182828 24.4842942 15.6628574 24.4197876 15.1506442 24.276919 14.6459236 24.1197408 14.3900441 24.0293406 14.14143 23.9350792 13.893043 23.8376378 13.6442018 23.7363351 13.1476548 23.5194201 12.8999489 23.4022179 12.6583732 23.2802458 12.4254252 23.1548667 12.2033754 23.0269891 11.988818 22.8952502 11.7812991 22.7601042 11.5824078 22.6170085 11.3898738 22.4702786 11.2057404 22.3205959 11.1156037 22.2413254 11.0327323 22.1668248 10.8633569 22.0055582 10.7057878 21.8397488 10.6263221 21.7543456 10.55503 21.6689425 10.4147163 21.5019975 10.2791705 21.3230142 10.1554311 21.1410782 10.038503 20.9525553 9.92929446 20.7653951 9.87321439 20.6631839 9.8246268 20.5671054 9.73040319 20.3622286 9.64435321 20.1566705 9.60234991 20.0521879 9.56829319 19.9517937 9.49609294 19.7326074 9.43683424 19.5145568 9.38030008 19.2899192 9.33897792 19.0641459 9.29697463 18.8267887 9.27109152 18.5905672 9.25610656 18.4656423 9.24861408 18.3454873 9.23680775 18.1033603 9.23385617 17.8505578 9.23680775 17.5945755 9.24861408 17.3360946 9.27109152 17.073071 9.29697463 16.8034605 9.33897792 16.5395284 9.3880196 16.2765048 9.44387263 16.0182511 9.50812631 15.7590888 9.58350519 15.5031064 9.66228975 15.2478055 9.7562863 15"></polygon>
                <g id="Group-16" transform="translate(35.000000, 8.000000)" fill="#000000">
                    <polygon id="Fill-6" points="0 14.625 2.62962963 14.625 2.62962963 0.375 0 0.375"></polygon>
                    <path d="M5.17097843,14.492933 L5.17097843,0.365518085 L8.14088085,0.365518085 L11.8040523,6.42290106 C12.7311789,7.99522021 13.5734704,9.62986915 14.2265662,11.1597415 L14.268086,11.1389649 C14.0784414,9.27331596 14.0364727,7.44989043 14.0364727,5.29113511 L14.0364727,0.365518085 L16.4367679,0.365518085 L16.4367679,14.492933 L13.7417941,14.492933 L10.0362051,8.26687979 C9.13107275,6.71690106 8.20394611,4.99735851 7.50888167,3.40470957 L7.42494427,3.42570957 C7.53020266,5.24913511 7.57239579,7.11478404 7.57239579,9.44131596 L7.57239579,14.492933 L5.17097843,14.492933 L5.17097843,14.492933 Z" id="Fill-7"></path>
                    <path d="M18.8584514,11.6839149 C19.6803196,12.1662447 20.9654146,12.5853511 22.2913561,12.5853511 C23.933746,12.5853511 24.8601993,11.8099149 24.8601993,10.6567021 C24.8601993,9.58815957 24.1451605,8.95838298 22.3535236,8.30917021 C19.9958704,7.49195745 18.500932,6.23419149 18.500932,4.22243617 C18.500932,1.89545745 20.4377761,0.155585106 23.5335846,0.155585106 C25.071165,0.155585106 26.1863652,0.491138298 26.9240717,0.847691489 L26.313169,2.94367021 C25.7859794,2.67089362 24.7973585,2.27323404 23.4700704,2.27323404 C21.8276805,2.27323404 21.1330649,3.1322234 21.1330649,3.97021277 C21.1330649,5.05975532 21.9544843,5.56353191 23.8498086,6.27596809 C26.313169,7.21962766 27.4923323,8.45594681 27.4923323,10.4683723 C27.4923323,12.7524574 25.7664538,14.7021064 22.122808,14.7021064 C20.6060997,14.7021064 19.0489938,14.2827766 18.2697675,13.822117 L18.8584514,11.6839149 Z" id="Fill-9"></path>
                    <polygon id="Fill-11" points="29.303764 14.493 31.8930306 14.493 31.8930306 0.365585106 29.303764 0.365585106"></polygon>
                    <path d="M45.7056466,13.8414862 C44.8016364,14.1792734 43.031096,14.6385926 41.1582149,14.6385926 C38.7581442,14.6385926 36.9258852,14.03205 35.577725,12.7523904 C34.3143999,11.5576245 33.5980145,9.69264574 33.5980145,7.55511383 C33.619111,3.06915638 36.7981836,0.218741489 41.4950867,0.218741489 C43.2418372,0.218741489 44.6115429,0.574624468 45.2644142,0.889401064 L44.6961536,2.96437979 C43.9169273,2.6078266 42.9684796,2.35672021 41.4733168,2.35672021 C38.4421446,2.35672021 36.3147581,4.13836915 36.3147581,7.42889043 C36.3147581,10.6566351 38.2942442,12.5428372 41.2417035,12.5428372 C42.1908244,12.5428372 42.8632213,12.4175074 43.2005418,12.2709543 L43.2005418,8.72865638 L40.6952127,8.72865638 L40.6952127,6.69567766 L45.7056466,6.69567766 L45.7056466,13.8414862 Z" id="Fill-13"></path>
                    <polygon id="Fill-14" points="50.4230851 0.365585106 50.4230851 6.02441489 56.4221398 6.02441489 56.4221398 0.365585106 59.0140996 0.365585106 59.0140996 14.493 56.4221398 14.493 56.4221398 8.26694681 50.4230851 8.26694681 50.4230851 14.493 47.8333697 14.493 47.8333697 0.365585106"></polygon>
                    <polygon id="Fill-15" points="64.1738926 2.52469787 60.1300853 2.52469787 60.1300853 0.365495745 70.8482618 0.365495745 70.8482618 2.52469787 66.7622614 2.52469787 66.7622614 14.4929106 64.1738926 14.4929106"></polygon>
                </g>
            </g>
        </g>
    </g>
</svg>