<?xml version="1.0" encoding="UTF-8"?>
<svg width="32px" height="32px" viewBox="0 0 32 32" version="1.1" xmlns="http://www.w3.org/2000/svg" xmlns:xlink="http://www.w3.org/1999/xlink">
    <!-- Generator: Sketch 42 (36781) - http://www.bohemiancoding.com/sketch -->
    <title>insight-icon</title>
    <desc>Created with Sketch.</desc>
    <defs></defs>
    <g id="Logins" stroke="none" stroke-width="1" fill="none" fill-rule="evenodd" fill-opacity="0.600000024">
        <g id="insight-icon" fill="#FFFFFF">
            <g id="Group-8" transform="translate(0.000000, -4.000000)">
                <polygon id="Fill-1" points="29.7807905 21.4078755 31.3850175 20.7221682 33 20.0213904 32.8342547 19.7403986 32.6743008 19.4671852 32.3364672 18.9324259 32.1580359 18.6667477 31.9845687 18.4103063 31.8011733 18.1526495 31.6186053 17.9030141 31.2341644 17.4098201 31.0333948 17.1679631 30.8362102 16.9350997 30.4197786 16.4725328 30.2065987 16.2476908 29.9959009 16.0306271 29.7714139 15.8082158 29.5477543 15.5964998 29.3191305 15.3835683 29.0913342 15.177929 28.8533338 14.973262 28.6150577 14.7766164 28.3731964 14.5789985 28.1299563 14.3903743 27.6227922 14.0165289 27.3627292 13.8359261 27.1068031 13.6628585 26.5715092 13.3206125 26.2973813 13.1560525 26.0227019 13 25.968097 13.2890131 25.9085279 13.5789985 25.8445464 13.8636364 25.7756008 14.1528926 25.7345092 14.2902285 25.6978301 14.4302382 25.620611 14.7117161 25.5753826 14.8480797 25.5524927 14.9173554 25.5334637 14.9895479 25.4463164 15.2712688 25.3464831 15.540107 25.245271 15.8135634 25.1357853 16.0831308 25.0260238 16.3526981 24.9077131 16.6130287 24.7833352 16.8789499 24.6553721 17.1358775 24.5872538 17.2647059 24.5229965 17.3966942 24.3812443 17.6465727 24.2353553 17.8996111 24.0839507 18.1492465 23.9289609 18.4015557 23.764043 18.6429266 23.6002281 18.8879436 23.4264852 19.1295576 23.2521906 19.3701993 23.06521 19.604035 22.8771263 19.8373845 22.6851817 20.0661157 22.4888245 20.298493 22.433668 20.3507535 22.3837514 20.409334 22.2830908 20.5209042 22.0729445 20.7462324 21.9626315 20.8536704 21.8578341 20.966456 21.6429995 21.191298 21.583982 21.2394263 21.5288255 21.2926592 21.4196157 21.3928051 21.1995412 21.5887214 21.0861946 21.677929 20.9756058 21.7702965 20.8608802 21.8585318 20.7513946 21.9508994 20.6328081 22.0308702 20.5729633 22.0719494 20.5194615 22.1164317 20.2897346 22.2739426 20.1705966 22.3441906 20.0561468 22.4171123 19.9383877 22.4861449 19.8233864 22.5578512 19.7594048 22.587263 19.7003873 22.6186193 19.5806977 22.6815751 19.5175435 22.7107438 19.4576987 22.7428294 19.3382849 22.8033544 19.0922869 22.9076325 18.9679089 22.9560039 18.8495982 23.0077783 18.5933963 23.0926106 18.4654332 23.1319883 18.402279 23.1526495 18.3416068 23.1769567 18.0859564 23.2452601 17.830306 23.3104035 17.6932421 23.3298493 17.5594875 23.3548858 17.2958394 23.3981526 17.1579482 23.4100632 17.0252968 23.4273213 16.8882329 23.4370442 16.8198388 23.4421488 16.7558572 23.4511424 16.6824991 23.4511424 16.6138292 23.4538162 16.4767653 23.4589208 16.2029133 23.4623238 16.1290035 23.4589208 16.061161 23.4589208 15.9238213 23.4538162 15.7817933 23.4467671 15.6450052 23.4421488 15.4985647 23.4273213 15.4257581 23.4188138 15.3568125 23.4137093 15.2103719 23.3937773 15.0683439 23.3784638 14.7762902 23.3298493 14.4834092 23.2775887 14.1811515 23.2085561 14.104484 23.1895965 14.0314016 23.1733106 13.8846853 23.1353913 13.583255 23.0525036 13.2812731 22.9632961 12.9751545 22.8543996 12.6781367 22.7374818 12.3808431 22.6137579 12.0970629 22.490034 11.8094217 22.349052 11.5344665 22.2029655 11.2603387 22.0476422 11 21.8901313 11.2200745 22.0354886 11.4390458 22.1764706 11.663257 22.3128342 11.8910534 22.446281 12.1199529 22.5700049 12.3485766 22.6910549 12.8187858 22.9166262 13.2898224 23.1171609 13.7746481 23.3023821 14.2647136 23.4623238 14.7674652 23.6064657 15.013739 23.6682061 15.2693894 23.7243559 15.7867574 23.8208556 16.0424078 23.859018 16.3077106 23.8969373 16.8432803 23.9540593 17.3774711 23.9859018 17.9260025 24 18.4800496 23.993194 19.046507 23.9688867 19.7409274 23.9124939 20.0886892 23.8770053 20.4403119 23.8446767 20.6099181 23.8208556 20.7836611 23.8006806 21.1314229 23.7596014 21.473669 23.711473 21.8214308 23.6638308 22.1600918 23.6064657 22.5026137 23.5510452 23.1887606 23.4273213 23.8652552 23.2899854 24.5411981 23.1407389 24.8702067 23.0559067 25.0354004 23.0114244 25.2050067 22.973262 25.8726762 22.7912008 26.5306933 22.5947982 27.1887105 22.3852698 27.8376268 22.1601847 28.1624986 22.0408362 28.4909556 21.9231891 28.8111391 21.7977637 28.9719203 21.7331065 29.1365625 21.6740399 29.4561945 21.5410792 29.5336893 21.5048614 29.6158725 21.4737482"></polygon>
                <polygon id="Fill-2" points="14.6732182 0 14.4131637 0.232320128 14.1674241 0.473338232 13.6841627 0.960424878 13.2181322 1.45705124 12.7786109 1.97247645 12.3520791 2.48705992 11.9486102 3.02016167 11.5655533 3.56336429 11.3815799 3.83721023 11.2050292 4.12087648 10.85882 4.68147505 10.6912823 4.96429955 10.5330228 5.25778609 10.3750284 5.54397755 10.2255169 5.84167279 9.94425509 6.44043022 9.80349163 6.73700314 9.67624782 7.04311577 9.43024313 7.66039148 9.20146936 8.28748747 9 8.93254058 9.3157237 8.88933128 9.63674922 8.86211504 9.95300311 8.83433763 10.2742937 8.8208698 10.9073317 8.80150979 11.5393092 8.80992718 11.8468151 8.8208698 12.1588275 8.83882691 12.4676589 8.86211504 12.7786109 8.89522346 13.3944179 8.97350524 14.0091646 9.08040617 14.3081875 9.13539983 14.6109218 9.20554479 14.9104749 9.2751286 15.2134742 9.35789966 15.8104597 9.52989512 16.1060365 9.62725633 16.4039991 9.73471842 16.694274 9.84077761 16.9887904 9.95665709 17.2793305 10.0778676 17.5730516 10.2077761 18.1533364 10.4768522 18.733091 10.7781949 19.0008331 10.9260605 19.2606226 11.0843076 19.5106037 11.242274 19.7531622 11.4131472 19.9808756 11.5851426 20.2048777 11.7666778 20.4211922 11.9529828 20.6271681 12.1468635 20.8164432 12.3376578 21.0004166 12.5416394 21.1724608 12.7459015 21.3439749 12.9630703 21.4974627 13.1827644 21.6467091 13.4097535 21.7834962 13.641793 21.919488 13.8825306 22.0340074 14.11934 22.1429599 14.3704589 22.2444899 14.6204556 22.3362115 14.8847618 22.4114974 15.14514 22.4865182 15.4184247 22.5474892 15.6919901 22.6055442 15.9795845 22.6439824 16.2635313 22.6789745 16.5601042 22.7017723 16.8563966 22.7197985 17.1678402 22.72404 17.4747946 22.7197985 17.7940945 22.7057487 18.1145167 22.6885178 18.447565 22.6492843 18.7730376 22.6055442 19.0979491 22.5739983 19.2559156 22.5474892 19.4175296 22.4865182 19.7418799 22.4072559 20.0592157 22.3237522 20.3731846 22.2972431 20.44838 22.2839885 20.4856971 22.2749754 20.5266618 22.2312353 20.6843477 22.1307657 21 22.2269939 20.7312045 22.3192456 20.471107 22.4072559 20.2110094 22.4907597 19.951473 22.5655154 19.6829581 22.6357646 19.42258 22.7587669 18.9026655 22.8070136 18.6335894 22.851814 18.3746142 22.8902522 18.1052575 22.9260395 17.8443183 22.9520185 17.5760839 22.9740211 17.316267 23 16.7873739 23 16.5185784 22.9965538 16.2492217 22.9700447 15.7203287 22.9475119 15.4512526 22.9210028 15.1827377 22.8862758 14.9131004 22.851814 14.6479524 22.8033023 14.3794375 22.7500189 14.110642 22.6270166 13.5727704 22.5567674 13.2986439 22.4820117 13.028726 22.3147391 12.491135 22.0772173 11.8169016 21.8320079 11.154172 21.5724835 10.4995791 21.2997046 9.85564834 21.0096948 9.21031465 20.7109369 8.58321865 20.3949481 7.95724497 20.069151 7.34922841 19.7224116 6.74205358 19.3661289 6.14357673 18.9971219 5.55351727 18.6151254 4.97355869 18.2145724 4.39331953 17.8060668 3.8321598 17.3800651 3.27548934 16.9450504 2.73312847 16.3827918 2.04654954 16.0967583 1.70311978 15.8152314 1.3641793"></polygon>
                <polygon id="Fill-3" points="15.0617656 13 14.7822717 13 14.508296 13.0063144 13.9501361 13.0400724 13.2460213 13.0876736 12.5457692 13.1564039 11.8507594 13.2365487 11.1648545 13.337094 10.4739832 13.4456539 9.79249282 13.5741285 9.11569284 13.7098889 8.44799779 13.8670214 7.77506051 14.0273111 7.11205588 14.2123728 6.44905126 14.4052061 5.79515156 14.6184399 5.14070005 14.8392025 4.49093896 15.0803656 3.84669601 15.3290575 3.21073028 15.5981498 1.60136449 16.2854525 0 16.9916985 0.315085845 17.5376548 0.649485183 18.0719537 0.819168015 18.3325459 0.996852151 18.5941095 1.36711941 19.0995077 1.74759522 19.5900912 2.14490136 20.06416 2.34658941 20.2924514 2.55710649 20.5204999 2.99110827 20.9717396 3.20631576 21.1849734 3.43035228 21.398693 3.65466471 21.6075553 3.88780616 21.8152032 4.3593313 22.2164131 4.60130178 22.4080321 4.852929 22.6025655 5.0995899 22.7868986 5.35563164 22.9719603 5.61167338 23.1477933 5.87737186 23.3272691 6.41180381 23.669949 6.68688313 23.8350959 6.97051557 24 7.01521251 23.7039498 7.07591206 23.4139713 7.20862335 22.8391142 7.3592686 22.2722717 7.53805636 21.7224295 7.62882978 21.4450798 7.73450218 21.1759875 7.95412418 20.6414457 8.19664648 20.1166185 8.32466734 19.8560263 8.46179314 19.6024772 8.74514968 19.0922218 8.89193223 18.8391584 9.0514065 18.5941095 9.38111542 18.1074117 9.73344871 17.6299428 10.1039919 17.1602455 10.2951955 16.9278255 10.4963317 16.7029342 10.9126754 16.2577661 11.3524712 15.8189124 11.5674028 15.6107787 11.7867489 15.4130881 12.0063709 15.228755 12.2345461 15.0555936 12.4591344 14.8872894 12.6925518 14.7308856 12.9254173 14.5815247 13.1632492 14.4498929 13.4016329 14.3168039 13.6433274 14.2009582 13.8861256 14.0921555 14.1383047 13.9957389 14.3849656 13.9036937 14.6415591 13.8237918 14.8964972 13.7550615 15.1621957 13.6984744 15.4234797 13.6465017 15.6877986 13.6020577 15.9534971 13.5699998 16.2280246 13.5498421 16.5025521 13.5374561 16.7817701 13.5345418 17.0604362 13.5418277 17.3484831 13.562471 17.6315638 13.5860287 17.9201625 13.6219725 18.2087613 13.6664164 18.5050855 13.7271322 18.8027892 13.7907624 19.1049074 13.8670214 19.4064738 13.9515378 19.717421 14.0479544 20.0195392 14.148014 20.3172429 14.2650741 20.6099803 14.3814055 20.8977514 14.5142517 21.1766934 14.6456406 21.4564631 14.7947586 21.7304388 14.9521339 22 15.1163094 21.5513751 14.8229307 21.3234759 14.6866845 21.0986117 14.5584527 20.866022 14.4299781 20.6372951 14.3085466 20.4036018 14.1914865 20.1762544 14.0880268 19.9323526 13.9801956 19.6953485 13.8794074 19.4531021 13.7829907 19.2144425 13.6984744 18.9680575 13.6098293 18.7258111 13.5345418 18.473908 13.46144 18.2272471 13.3978098 17.9706535 13.3293224 17.7193022 13.2729782 17.4580182 13.2207626 17.2017006 13.1760758 16.9360021 13.1321175 16.6760977 13.1007882 16.4112269 13.0677588 16.1499429 13.0485726 15.8762431 13.0233149 15.6058542 13.0114146 15.3318786 13"></polygon>
                <polygon id="Fill-4" points="15.5821945 20.4035879 15.7301835 20.539653 15.8930105 20.6635624 16.0550566 20.7608078 16.2292073 20.8513871 16.4045295 20.9094206 16.5982038 20.9619645 16.7934401 20.9878443 17 21 17.1936743 20.9878443 17.3881296 20.9619645 17.4787193 20.9356926 17.5755564 20.9094206 17.7579071 20.8513871 17.9250293 20.7608078 18.0944943 20.6635624 18.24795 20.539653 18.4045295 20.4035879 18.5392425 20.248309 18.6638032 20.092638 18.7602499 19.9216743 18.8520109 19.755024 18.9101913 19.5738653 18.935572 19.4770121 18.9605623 19.3852563 18.9863335 19.191942 19 18.9962749 18.9863335 18.78806 18.9605623 18.5923929 18.9101913 18.4002549 18.8520109 18.2245858 18.7602499 18.0500931 18.6638032 17.8869719 18.5392425 17.725027 18.4045295 17.5819037 18.24795 17.4391726 18.0944943 17.3242819 17.9250293 17.2191942 17.7579071 17.142339 17.5755564 17.0772473 17.3881296 17.0325458 17.1936743 17.0043133 17 17 16.7934401 17.0043133 16.5982038 17.0325458 16.4045295 17.0772473 16.2292073 17.142339 16.0550566 17.2191942 15.8930105 17.3242819 15.7301835 17.4391726 15.5821945 17.5819037 15.439672 17.725027 15.3229207 17.8869719 15.2194455 18.0500931 15.141351 18.2245858 15.0757517 18.4002549 15.0312378 18.5923929 15.0058571 18.78806 15 18.9962749 15.0058571 19.191942 15.0312378 19.3852563 15.0757517 19.5738653 15.141351 19.755024 15.2194455 19.9216743 15.3229207 20.092638 15.439672 20.248309"></polygon>
                <polygon id="Fill-5" points="10.6847293 18.5190728 10.514143 19.0389872 10.3642177 19.5636716 10.2458139 20.0931258 10.1448924 20.6169684 10.0754924 21.1450197 10.0264886 21.6744739 10.0047679 22.208698 10 22.7373104 10.0264886 23.2709733 10.0754924 23.8091255 10.1496604 24.3467165 10.2415757 24.8848687 10.3689857 25.4238626 10.514143 25.9617343 10.6892324 26.5094261 10.9180936 27.1777674 11.0367623 27.506607 11.1636426 27.8402164 11.2860197 28.1659697 11.4181976 28.495651 11.6947382 29.1440711 11.9810796 29.7804262 12.2833141 30.4108892 12.5950845 31.032093 12.7571945 31.3390474 12.9291053 31.6493687 13.2673642 32.2534571 13.4427185 32.5494689 13.6270789 32.8510923 13.8066713 33.1457011 13.9963294 33.44031 14.1843982 33.7281849 14.3825327 34.0227938 14.5756343 34.3036542 14.7774772 34.5912486 15.1904338 35.1580199 15.616105 35.7149709 16.0595236 36.2682744 17.1834333 37.6302091 17.7502885 38.3139822 18.325885 39 18.5751424 38.7587013 18.8217509 38.5174026 18.8792311 38.4523081 18.9404197 38.392264 19.0633266 38.2718953 19.3051672 38.0308771 19.4193329 37.8992852 19.4770779 37.8358741 19.5369421 37.773866 19.7660682 37.5252722 19.8757308 37.394522 19.9906912 37.2679805 20.2131951 37.0188256 20.4245738 36.7545193 20.634893 36.4947024 20.8377954 36.229835 21.0396382 35.9655288 21.2327399 35.6919634 21.4218682 35.4209232 21.6059637 35.1496025 21.7897943 34.8743537 21.96197 34.5870399 22.0011731 34.5129668 22.0448792 34.4431024 22.1328212 34.3036542 22.2959908 34.0174628 22.3743969 33.8732447 22.4578359 33.7340771 22.6122642 33.4366624 22.7603353 33.1457011 22.9049628 32.848567 22.9756873 32.6995791 23.0109171 32.6238226 23.050385 32.553397 23.1820332 32.2486873 23.3139462 31.9470639 23.4413562 31.639829 23.564528 31.3351192 23.6786937 31.0177834 23.7319357 30.8612199 23.7573648 30.7823769 23.7880915 30.7080232 23.8932511 30.3870399 24 30.073071 23.6744556 30.1036542 23.3534142 30.1325539 23.0334324 30.1564032 22.7171589 30.1743603 22.080109 30.1937204 21.7641004 30.1937204 21.4520652 30.1881088 21.1357917 30.1743603 20.8250809 30.1564032 20.2052485 30.1014096 19.8977163 30.0629701 19.5901841 30.0211637 18.9843907 29.9190327 18.3740942 29.7882825 18.0713299 29.7158928 17.7733336 29.6362082 17.1757516 29.4597234 16.5869109 29.2655622 16.2883848 29.1538914 15.998335 29.0374507 15.7085501 28.917082 15.4182355 28.7919433 14.8389306 28.5239896 14.5499404 28.3792104 14.2681021 28.228539 13.9963294 28.0736589 13.7372713 27.9156924 13.4869544 27.7529561 13.2448489 27.5860111 13.0128091 27.4092458 12.7881861 27.2279912 12.5733639 27.0430891 12.4682043 26.9451667 12.371521 26.8531365 12.1739163 26.6539248 11.9900857 26.4491015 11.8973757 26.3436034 11.8142017 26.2381054 11.6505023 26.0318792 11.4923656 25.8107823 11.348003 25.5860378 11.2115869 25.3531565 11.0841769 25.1219587 11.0187501 24.9956978 10.9620646 24.8770125 10.8521371 24.6239295 10.7517454 24.3700047 10.7027416 24.2409379 10.6630087 24.1169216 10.5787751 23.8461621 10.5096399 23.5768054 10.4436834 23.2993119 10.3954742 23.0204155 10.3464704 22.7272096 10.3162734 22.4354065 10.298791 22.2810876 10.2900498 22.1326608 10.2762757 21.8335627 10.2728322 21.5212773 10.2762757 21.2050638 10.2900498 20.8857639 10.3162734 20.5608524 10.3464704 20.2278041 10.3954742 19.9017703 10.4526895 19.5768588 10.5178514 19.2578395 10.592814 18.9376979 10.6807561 18.6214844 10.7726714 18.3061126 10.882334 18"></polygon>
            </g>
        </g>
    </g>
</svg>